<svg width="274" height="246" viewBox="0 0 274 246" fill="none" xmlns="http://www.w3.org/2000/svg">
<g clip-path="url(#clip0_42_173)">
<path d="M219.529 246C246.977 246 269.228 240.476 269.228 233.661C269.228 226.846 246.977 221.322 219.529 221.322C192.081 221.322 169.831 226.846 169.831 233.661C169.831 240.476 192.081 246 219.529 246Z" fill="#06F9F7" fill-opacity="0.65"/>
<path d="M224.137 242.371C251.585 242.371 273.835 236.846 273.835 230.032C273.835 223.217 251.585 217.693 224.137 217.693C196.689 217.693 174.438 223.217 174.438 230.032C174.438 236.846 196.689 242.371 224.137 242.371Z" stroke="#5BC5CC" stroke-miterlimit="10"/>
<path d="M143.665 121.339C149.118 121.339 153.539 116.464 153.539 110.451C153.539 104.438 149.118 99.5638 143.665 99.5638C138.212 99.5638 133.791 104.438 133.791 110.451C133.791 116.464 138.212 121.339 143.665 121.339Z" fill="#06F9F7" fill-opacity="0.65"/>
<path d="M183.489 121.339C188.943 121.339 193.363 116.464 193.363 110.451C193.363 104.438 188.943 99.5638 183.489 99.5638C178.036 99.5638 173.616 104.438 173.616 110.451C173.616 116.464 178.036 121.339 183.489 121.339Z" fill="#06F9F7" fill-opacity="0.65"/>
<path d="M223.314 121.339C228.767 121.339 233.188 116.464 233.188 110.451C233.188 104.438 228.767 99.5638 223.314 99.5638C217.861 99.5638 213.44 104.438 213.44 110.451C213.44 116.464 217.861 121.339 223.314 121.339Z" fill="#06F9F7" fill-opacity="0.65"/>
<path d="M4.1141 8.47211C4.65942 8.47211 5.10148 7.98466 5.10148 7.38337C5.10148 6.78207 4.65942 6.29462 4.1141 6.29462C3.56878 6.29462 3.12671 6.78207 3.12671 7.38337C3.12671 7.98466 3.56878 8.47211 4.1141 8.47211Z" fill="#F86B75"/>
<path d="M7.07626 8.47211C7.62157 8.47211 8.06364 7.98466 8.06364 7.38337C8.06364 6.78207 7.62157 6.29462 7.07626 6.29462C6.53094 6.29462 6.08887 6.78207 6.08887 7.38337C6.08887 7.98466 6.53094 8.47211 7.07626 8.47211Z" fill="#FAD375"/>
<path d="M10.0384 8.47211C10.5837 8.47211 11.0258 7.98466 11.0258 7.38337C11.0258 6.78207 10.5837 6.29462 10.0384 6.29462C9.49309 6.29462 9.05103 6.78207 9.05103 7.38337C9.05103 7.98466 9.49309 8.47211 10.0384 8.47211Z" fill="#8BCC55"/>
<path d="M89.8522 24.2589H22.0516V47.4855H89.8522V24.2589Z" fill="#06F9F7" fill-opacity="0.65"/>
<path d="M119.968 3.75422H0.164551V82.1439H119.968V3.75422Z" stroke="#5BC5CC" stroke-miterlimit="10"/>
<path d="M0.164551 9.69088H119.968" stroke="#5BC5CC" stroke-miterlimit="10"/>
<path d="M4.4432 7.74628C4.98852 7.74628 5.43058 7.25884 5.43058 6.65754C5.43058 6.05624 4.98852 5.56879 4.4432 5.56879C3.89788 5.56879 3.45581 6.05624 3.45581 6.65754C3.45581 7.25884 3.89788 7.74628 4.4432 7.74628Z" stroke="#5BC5CC" stroke-miterlimit="10"/>
<path d="M7.40536 7.74628C7.95068 7.74628 8.39274 7.25884 8.39274 6.65754C8.39274 6.05624 7.95068 5.56879 7.40536 5.56879C6.86004 5.56879 6.41797 6.05624 6.41797 6.65754C6.41797 7.25884 6.86004 7.74628 7.40536 7.74628Z" stroke="#5BC5CC" stroke-miterlimit="10"/>
<path d="M10.3675 7.74628C10.9128 7.74628 11.3549 7.25884 11.3549 6.65754C11.3549 6.05624 10.9128 5.56879 10.3675 5.56879C9.8222 5.56879 9.38013 6.05624 9.38013 6.65754C9.38013 7.25884 9.8222 7.74628 10.3675 7.74628Z" stroke="#5BC5CC" stroke-miterlimit="10"/>
<path d="M93.9664 19.7225H26.1658V42.949H93.9664V19.7225Z" stroke="#5BC5CC" stroke-miterlimit="10"/>
<path d="M104.334 57.6471H13.4943V60.6505H104.334V57.6471Z" fill="#F2F2F2"/>
<path d="M104.334 64.8553H13.4943V67.8588H104.334V64.8553Z" fill="#F2F2F2"/>
<path d="M104.334 72.0636H13.4943V75.067H104.334V72.0636Z" fill="#F2F2F2"/>
<path d="M105.321 56.1954H14.4817V59.1989H105.321V56.1954Z" stroke="#5BC5CC" stroke-miterlimit="10"/>
<path d="M105.321 63.4037H14.4817V66.4071H105.321V63.4037Z" stroke="#5BC5CC" stroke-miterlimit="10"/>
<path d="M105.321 70.6119H14.4817V73.6153H105.321V70.6119Z" stroke="#5BC5CC" stroke-miterlimit="10"/>
<path d="M31.7609 144.202C32.3063 144.202 32.7483 143.715 32.7483 143.114C32.7483 142.512 32.3063 142.025 31.7609 142.025C31.2156 142.025 30.7736 142.512 30.7736 143.114C30.7736 143.715 31.2156 144.202 31.7609 144.202Z" fill="#F86B75"/>
<path d="M34.7231 144.202C35.2684 144.202 35.7105 143.715 35.7105 143.114C35.7105 142.512 35.2684 142.025 34.7231 142.025C34.1778 142.025 33.7357 142.512 33.7357 143.114C33.7357 143.715 34.1778 144.202 34.7231 144.202Z" fill="#FAD375"/>
<path d="M37.6853 144.202C38.2306 144.202 38.6726 143.715 38.6726 143.114C38.6726 142.512 38.2306 142.025 37.6853 142.025C37.1399 142.025 36.6979 142.512 36.6979 143.114C36.6979 143.715 37.1399 144.202 37.6853 144.202Z" fill="#8BCC55"/>
<path d="M117.499 159.989H49.6985V183.216H117.499V159.989Z" fill="#06F9F7" fill-opacity="0.65"/>
<path d="M147.614 155.453V217.874H27.8114V139.485H125.234" stroke="#5BC5CC" stroke-miterlimit="10"/>
<path d="M27.8114 145.421H125.398" stroke="#5BC5CC" stroke-miterlimit="10"/>
<path d="M32.0901 143.477C32.6354 143.477 33.0774 142.989 33.0774 142.388C33.0774 141.786 32.6354 141.299 32.0901 141.299C31.5447 141.299 31.1027 141.786 31.1027 142.388C31.1027 142.989 31.5447 143.477 32.0901 143.477Z" stroke="#5BC5CC" stroke-miterlimit="10"/>
<path d="M35.0522 143.477C35.5975 143.477 36.0396 142.989 36.0396 142.388C36.0396 141.786 35.5975 141.299 35.0522 141.299C34.5069 141.299 34.0648 141.786 34.0648 142.388C34.0648 142.989 34.5069 143.477 35.0522 143.477Z" stroke="#5BC5CC" stroke-miterlimit="10"/>
<path d="M38.0145 143.477C38.5598 143.477 39.0019 142.989 39.0019 142.388C39.0019 141.786 38.5598 141.299 38.0145 141.299C37.4692 141.299 37.0271 141.786 37.0271 142.388C37.0271 142.989 37.4692 143.477 38.0145 143.477Z" stroke="#5BC5CC" stroke-miterlimit="10"/>
<path d="M121.613 155.453H53.8126V178.679H121.613V155.453Z" stroke="#5BC5CC" stroke-miterlimit="10"/>
<path d="M129.183 81.418C129.728 81.418 130.171 80.9306 130.171 80.3293C130.171 79.728 129.728 79.2405 129.183 79.2405C128.638 79.2405 128.196 79.728 128.196 80.3293C128.196 80.9306 128.638 81.418 129.183 81.418Z" fill="#F86B75"/>
<path d="M132.145 81.418C132.691 81.418 133.133 80.9306 133.133 80.3293C133.133 79.728 132.691 79.2405 132.145 79.2405C131.6 79.2405 131.158 79.728 131.158 80.3293C131.158 80.9306 131.6 81.418 132.145 81.418Z" fill="#FAD375"/>
<path d="M135.108 81.418C135.653 81.418 136.095 80.9306 136.095 80.3293C136.095 79.728 135.653 79.2405 135.108 79.2405C134.562 79.2405 134.12 79.728 134.12 80.3293C134.12 80.9306 134.562 81.418 135.108 81.418Z" fill="#8BCC55"/>
<path d="M245.037 76.7001H125.234V155.09H245.037V76.7001Z" stroke="#5BC5CC" stroke-miterlimit="10"/>
<path d="M125.234 82.6368H245.037" stroke="#5BC5CC" stroke-miterlimit="10"/>
<path d="M129.512 80.6922C130.058 80.6922 130.5 80.2048 130.5 79.6035C130.5 79.0022 130.058 78.5147 129.512 78.5147C128.967 78.5147 128.525 79.0022 128.525 79.6035C128.525 80.2048 128.967 80.6922 129.512 80.6922Z" stroke="#5BC5CC" stroke-miterlimit="10"/>
<path d="M132.474 80.6922C133.02 80.6922 133.462 80.2048 133.462 79.6035C133.462 79.0022 133.02 78.5147 132.474 78.5147C131.929 78.5147 131.487 79.0022 131.487 79.6035C131.487 80.2048 131.929 80.6922 132.474 80.6922Z" stroke="#5BC5CC" stroke-miterlimit="10"/>
<path d="M135.437 80.6922C135.982 80.6922 136.424 80.2048 136.424 79.6035C136.424 79.0022 135.982 78.5147 135.437 78.5147C134.891 78.5147 134.449 79.0022 134.449 79.6035C134.449 80.2048 134.891 80.6922 135.437 80.6922Z" stroke="#5BC5CC" stroke-miterlimit="10"/>
<path d="M145.311 119.524C150.764 119.524 155.184 114.65 155.184 108.637C155.184 102.624 150.764 97.7492 145.311 97.7492C139.857 97.7492 135.437 102.624 135.437 108.637C135.437 114.65 139.857 119.524 145.311 119.524Z" stroke="#5BC5CC" stroke-miterlimit="10"/>
<path d="M185.135 119.524C190.588 119.524 195.009 114.65 195.009 108.637C195.009 102.624 190.588 97.7492 185.135 97.7492C179.682 97.7492 175.261 102.624 175.261 108.637C175.261 114.65 179.682 119.524 185.135 119.524Z" stroke="#5BC5CC" stroke-miterlimit="10"/>
<path d="M224.96 119.524C230.413 119.524 234.834 114.65 234.834 108.637C234.834 102.624 230.413 97.7492 224.96 97.7492C219.507 97.7492 215.086 102.624 215.086 108.637C215.086 114.65 219.507 119.524 224.96 119.524Z" stroke="#5BC5CC" stroke-miterlimit="10"/>
<path d="M157.324 128.778H130.335V131.682H157.324V128.778Z" fill="#F2F2F2"/>
<path d="M197.477 128.778H170.489V131.682H197.477V128.778Z" fill="#F2F2F2"/>
<path d="M237.631 128.778H210.643V131.682H237.631V128.778Z" fill="#F2F2F2"/>
<path d="M158.64 127.69H131.652V130.593H158.64V127.69Z" stroke="#5BC5CC" stroke-miterlimit="10"/>
<path d="M198.794 127.69H171.805V130.593H198.794V127.69Z" stroke="#5BC5CC" stroke-miterlimit="10"/>
<path d="M238.948 127.69H211.959V130.593H238.948V127.69Z" stroke="#5BC5CC" stroke-miterlimit="10"/>
<path d="M52.9898 192.289H32.2546V211.886H52.9898V192.289Z" fill="#F2F2F2"/>
<path d="M91.3333 192.47H70.5981V212.067H91.3333V192.47Z" fill="#F2F2F2"/>
<path d="M129.677 192.652H108.942V212.249H129.677V192.652Z" fill="#F2F2F2"/>
<path d="M55.9519 188.659H35.2168V208.257H55.9519V188.659Z" stroke="#5BC5CC" stroke-miterlimit="10"/>
<path d="M94.2954 188.841H73.5603V208.438H94.2954V188.841Z" stroke="#5BC5CC" stroke-miterlimit="10"/>
<path d="M132.639 189.022H111.904V208.62H132.639V189.022Z" stroke="#5BC5CC" stroke-miterlimit="10"/>
<path d="M197.736 74.2132L188.501 79.8555L198.35 76.0245L197.736 74.2132Z" fill="#79758C"/>
<path d="M201.899 79.7647C203.252 79.28 203.631 76.4496 202.746 73.443C201.86 70.4363 200.045 68.3919 198.691 68.8766C197.338 69.3614 196.959 72.1917 197.844 75.1983C198.73 78.205 200.545 80.2494 201.899 79.7647Z" fill="#5BC5CC"/>
<path d="M209.459 73.8001C210.481 73.4344 210.801 71.4169 210.176 69.2939C209.551 67.171 208.216 65.7465 207.195 66.1122C206.174 66.4779 205.853 68.4953 206.478 70.6183C207.104 72.7412 208.438 74.1658 209.459 73.8001Z" fill="#5BC5CC"/>
<path d="M200.889 71.0156L207.015 68.5768L208.317 72.5536L202.388 76.9696L200.889 71.0156Z" fill="#5BC5CC"/>
<path d="M200.303 85.6365L201.949 81.6445C201.949 81.6445 205.898 70.0312 202.278 72.2087C198.657 74.3862 197.341 80.1928 197.341 80.1928L196.354 83.822L200.303 85.6365Z" fill="#A0616A"/>
<path d="M245.394 145.88C245.394 145.88 239.798 157.857 238.153 158.22C236.507 158.582 236.507 147.332 236.507 147.332C236.507 147.332 239.798 144.066 241.115 144.429C242.432 144.792 245.394 145.88 245.394 145.88Z" fill="#A0616A"/>
<path d="M237.165 221.367C237.165 221.367 240.128 223.181 238.811 227.173C237.495 231.165 236.836 230.077 236.178 233.343C235.52 236.609 229.596 236.246 229.266 234.795C228.937 233.343 228.279 227.536 229.925 225.359C231.57 223.181 237.165 221.367 237.165 221.367Z" fill="#55536E"/>
<path d="M207.873 221.367C207.873 221.367 204.911 223.181 206.227 227.173C207.544 231.165 208.202 230.077 208.86 233.343C209.519 236.609 215.443 236.246 215.772 234.795C216.101 233.343 216.759 227.536 215.114 225.359C213.468 223.181 207.873 221.367 207.873 221.367Z" fill="#55536E"/>
<path d="M235.52 148.784C235.52 148.784 238.153 150.598 238.811 161.849C239.469 173.099 238.482 185.801 238.153 188.704C237.824 191.608 238.482 195.963 239.14 198.14C239.798 200.318 237.495 217.012 237.495 217.012C237.98 218.147 238.232 219.386 238.232 220.641C238.232 221.896 237.98 223.135 237.495 224.27C235.849 228.262 230.912 232.254 229.595 228.262C229.526 226.869 229.19 225.509 228.608 224.27C227.621 222.093 229.266 213.383 229.266 213.383C229.266 213.383 227.95 199.592 228.279 195.963C228.608 192.334 224.329 170.922 223.671 167.292C223.013 163.663 223.342 160.76 223.013 161.849C222.684 162.937 216.759 193.059 216.759 193.059C216.759 193.059 217.418 212.294 217.089 214.834C216.759 217.375 218.405 222.455 217.418 224.27C216.43 226.085 214.456 232.617 210.835 228.625C207.215 224.633 207.873 223.181 207.544 221.367C207.215 219.552 207.544 217.375 207.544 214.471C207.544 211.568 204.911 195.237 206.227 192.696C207.544 190.156 206.886 186.89 206.556 181.083C206.227 175.277 205.898 147.332 209.189 142.251C212.481 137.17 235.52 148.784 235.52 148.784Z" fill="#5BC5CC"/>
<path d="M227.456 80.7372C231.819 80.7372 235.355 76.8376 235.355 72.0272C235.355 67.2169 231.819 63.3173 227.456 63.3173C223.094 63.3173 219.557 67.2169 219.557 72.0272C219.557 76.8376 223.094 80.7372 227.456 80.7372Z" fill="#A0616A"/>
<path d="M232.558 75.4749C232.558 75.4749 232.229 88.5399 233.874 90.7174C235.52 92.8949 219.722 88.9028 219.722 88.9028C219.722 88.9028 223.342 80.5557 221.038 75.112C218.734 69.6683 232.558 75.4749 232.558 75.4749Z" fill="#A0616A"/>
<path d="M235.52 89.2657C235.52 89.2657 234.862 86.3624 230.912 85.6365C226.962 84.9107 222.292 84.1849 220.842 85.6365C219.392 87.0882 218.734 88.9028 217.747 88.9028H213.139L205.898 103.056C205.898 103.056 209.519 107.774 208.531 116.484C207.544 125.194 205.898 141.163 205.898 141.163C208.537 145.036 210.85 149.166 212.81 153.502C216.101 160.76 238.811 160.034 237.495 147.332C237.495 147.332 235.849 144.066 236.507 141.163C237.165 138.259 239.14 118.662 239.14 118.662L246.71 96.524C246.71 96.524 236.178 90.7174 235.52 89.2657Z" fill="#55536E"/>
<path d="M244.406 96.1611H246.71C246.71 96.1611 248.027 104.508 247.698 109.589C247.368 114.67 247.368 126.646 247.368 126.646C247.368 126.646 248.685 129.549 248.356 132.09C248.027 134.63 247.368 141.525 247.368 141.525C247.368 141.525 247.039 151.324 240.786 146.243C240.786 146.243 238.811 145.155 239.798 140.437C240.786 135.719 239.14 130.638 239.14 130.638C239.14 130.638 240.128 127.372 239.798 125.194C239.469 123.017 238.153 116.121 238.153 116.121L244.406 96.1611Z" fill="#55536E"/>
<path d="M214.785 89.9915L213.139 88.9028C213.139 88.9028 210.835 87.814 207.544 88.9028C204.253 89.9915 202.607 89.6286 201.29 89.2657C199.974 88.9028 200.961 85.2736 200.961 85.2736C200.961 85.2736 198.328 80.1928 195.695 83.0961C193.062 85.9995 193.062 91.8061 193.062 91.8061C193.062 91.8061 191.417 95.4353 197.341 97.6127C203.265 99.7902 205.898 103.056 205.898 103.056H212.481L214.785 89.9915Z" fill="#55536E"/>
<path d="M226.921 82.4239C226.911 82.1001 226.816 81.7865 226.648 81.5206C226.48 81.2547 226.246 81.0479 225.975 80.925C225.611 80.7886 225.233 80.7062 224.85 80.6801C223.729 80.5208 222.576 80.0676 221.923 79.1235C221.054 77.8664 221.292 76.1079 220.595 74.7432C220.271 74.2059 219.916 73.692 219.533 73.2044C218.317 71.4102 218.103 69.1197 217.992 66.9405C217.938 66.4987 217.984 66.049 218.126 65.6317C218.335 65.2563 218.587 64.9128 218.877 64.6099C219.368 63.9807 219.633 63.1749 219.622 62.3449C219.586 60.6572 221.776 59.5231 223.327 58.9402C224.878 58.3574 226.56 58.2645 228.213 58.2399C229.163 58.2257 230.143 58.2381 231.016 58.6207C231.519 58.8613 231.991 59.1714 232.422 59.5435C234.252 61.0205 235.971 62.8364 236.585 65.1347C236.826 66.1838 236.938 67.2638 236.918 68.3458C236.948 68.682 236.903 69.021 236.788 69.3341C236.568 69.821 236.051 70.0847 235.716 70.4976C235.091 71.2689 235.202 72.3848 235.123 73.3827C235.022 74.4119 234.702 75.4004 234.191 76.2686C233.68 77.1368 232.991 77.8604 232.179 78.3811C231.842 78.563 231.532 78.7995 231.259 79.0829C231.053 79.3837 230.882 79.712 230.751 80.0602C230.093 81.4526 228.434 82.3746 226.921 82.4239Z" fill="#5BC5CC"/>
<path d="M63.3896 3.87267L59.0056 6.55061L63.6809 4.73241L63.3896 3.87267Z" fill="#79758C"/>
<path d="M65.3654 6.50779C66.0079 6.2777 66.1879 4.93419 65.7675 3.50699C65.347 2.07978 64.4854 1.10933 63.843 1.33943C63.2005 1.56952 63.0205 2.91303 63.4409 4.34024C63.8613 5.76744 64.723 6.73789 65.3654 6.50779Z" fill="#5BC5CC"/>
<path d="M68.9544 3.67648C69.4391 3.50288 69.5914 2.54524 69.2945 1.53751C68.9977 0.529787 68.3641 -0.14641 67.8794 0.0271826C67.3947 0.200776 67.2425 1.15842 67.5393 2.16615C67.8362 3.17387 68.4697 3.85007 68.9544 3.67648Z" fill="#5BC5CC"/>
<path d="M64.8861 2.35459L67.794 1.19726L68.4121 3.08478L65.5977 5.18098L64.8861 2.35459Z" fill="#5BC5CC"/>
<path d="M93.0112 138.877L88.6272 141.555L93.3025 139.737L93.0112 138.877Z" fill="#79758C"/>
<path d="M94.987 141.512C95.6295 141.282 95.8095 139.939 95.3891 138.511C94.9686 137.084 94.107 136.114 93.4645 136.344C92.8221 136.574 92.6421 137.917 93.0625 139.345C93.4829 140.772 94.3446 141.742 94.987 141.512Z" fill="#5BC5CC"/>
<path d="M98.5761 138.681C99.0608 138.507 99.2131 137.55 98.9162 136.542C98.6194 135.534 97.9858 134.858 97.5011 135.032C97.0165 135.205 96.8642 136.163 97.161 137.171C97.4579 138.178 98.0914 138.854 98.5761 138.681Z" fill="#5BC5CC"/>
<path d="M94.5078 137.359L97.4157 136.202L98.0338 138.089L95.2194 140.185L94.5078 137.359Z" fill="#5BC5CC"/>
</g>
<defs>
<clipPath id="clip0_42_173">
<rect width="274" height="246" fill="white"/>
</clipPath>
</defs>
</svg>
