<svg width="227" height="128" viewBox="0 0 227 128" fill="none" xmlns="http://www.w3.org/2000/svg">
<g clip-path="url(#clip0_42_1403)">
<path d="M12.7926 119.768C12.5183 119.773 12.2529 119.863 12.0355 120.023C11.3903 118.386 10.3914 117.333 9.26925 117.333C8.14707 117.333 7.1482 118.386 6.50296 120.023C6.28555 119.863 6.02023 119.773 5.7459 119.768C4.47101 119.768 3.4375 121.839 3.4375 124.393H15.101C15.101 121.839 14.0675 119.768 12.7926 119.768Z" fill="#6C63FF"/>
<path d="M59.1356 124.135H0V124.651H59.1356V124.135Z" fill="#C4C4C4"/>
<path d="M222.993 108.917C222.718 108.922 222.453 109.012 222.236 109.173C221.591 107.535 220.592 106.482 219.469 106.482C218.347 106.482 217.348 107.535 216.703 109.173C216.486 109.012 216.22 108.922 215.946 108.917C214.671 108.917 213.638 110.988 213.638 113.542H225.301C225.301 110.988 224.268 108.917 222.993 108.917Z" fill="#6C63FF"/>
<path d="M197.897 23.925H141.586V22.8102H116.053V23.925H59.5105C59.0103 23.925 58.515 24.0196 58.0529 24.2035C57.5908 24.3874 57.1709 24.6569 56.8172 24.9966C56.4635 25.3363 56.1829 25.7397 55.9915 26.1836C55.8001 26.6275 55.7015 27.1032 55.7015 27.5837V101.648C55.7015 102.618 56.1028 103.549 56.8172 104.235C57.5315 104.921 58.5003 105.307 59.5105 105.307H197.897C198.907 105.307 199.876 104.921 200.59 104.235C201.305 103.549 201.706 102.618 201.706 101.648V27.5837C201.706 27.1032 201.607 26.6275 201.416 26.1836C201.225 25.7397 200.944 25.3363 200.59 24.9966C200.237 24.6569 199.817 24.3874 199.355 24.2035C198.892 24.0196 198.397 23.925 197.897 23.925Z" fill="#6C63FF"/>
<path opacity="0.2" d="M196.598 30.3899H60.8094V103.97H196.598V30.3899Z" fill="black"/>
<path d="M128.588 28.3843C129.357 28.3843 129.98 27.7854 129.98 27.0465C129.98 26.3077 129.357 25.7087 128.588 25.7087C127.818 25.7087 127.195 26.3077 127.195 27.0465C127.195 27.7854 127.818 28.3843 128.588 28.3843Z" fill="#6C63FF"/>
<path d="M227 113.026H29.9711V113.542H227V113.026Z" fill="#C4C4C4"/>
<path d="M147.256 57.8806V52.4369C147.256 51.5598 147.076 50.6913 146.727 49.8809C146.378 49.0706 145.865 48.3343 145.22 47.714C144.574 47.0938 143.807 46.6018 142.964 46.2662C142.12 45.9305 141.216 45.7577 140.303 45.7577H134.635C134.635 45.0229 132.177 44.4209 129.053 44.3638V37.799C130.033 37.6804 130.929 37.2075 131.559 36.4766C132.189 35.7456 132.505 34.8116 132.443 33.8646C132.382 32.9176 131.946 32.0288 131.226 31.3792C130.506 30.7296 129.556 30.368 128.568 30.368C127.58 30.368 126.629 30.7296 125.909 31.3792C125.189 32.0288 124.754 32.9176 124.692 33.8646C124.63 34.8116 124.946 35.7456 125.576 36.4766C126.206 37.2075 127.102 37.6804 128.082 37.799V44.3638C124.958 44.4209 122.5 45.0229 122.5 45.7577H115.862C114.949 45.7577 114.045 45.9305 113.201 46.2662C112.357 46.6018 111.591 47.0938 110.945 47.714C110.299 48.3343 109.787 49.0706 109.438 49.8809C109.088 50.6913 108.908 51.5598 108.908 52.4369V57.8806C108.104 57.8806 107.452 60.4901 107.452 63.709C107.452 66.9278 108.104 69.5373 108.908 69.5373V75.9135C108.908 76.7906 109.088 77.6592 109.438 78.4695C109.787 79.2799 110.299 80.0162 110.945 80.6364C111.591 81.2566 112.357 81.7486 113.201 82.0843C114.045 82.4199 114.949 82.5927 115.862 82.5927H140.303C141.216 82.5927 142.12 82.4199 142.964 82.0843C143.807 81.7486 144.574 81.2566 145.22 80.6364C145.865 80.0162 146.378 79.2799 146.727 78.4695C147.076 77.6592 147.256 76.7906 147.256 75.9135V69.5373C148.061 69.5373 148.713 66.9278 148.713 63.709C148.713 60.4901 148.061 57.8806 147.256 57.8806Z" fill="#6C63FF"/>
<path d="M117.254 47.8558H138.911C140.545 47.8558 142.112 48.4794 143.267 49.5893C144.423 50.6991 145.072 52.2045 145.072 53.7741V74.5762C145.072 76.1458 144.423 77.6511 143.267 78.761C142.112 79.8709 140.545 80.4944 138.911 80.4944H117.254C115.62 80.4944 114.053 79.8709 112.897 78.761C111.742 77.6511 111.093 76.1458 111.093 74.5762V53.7741C111.093 52.2045 111.742 50.6991 112.897 49.5893C114.053 48.4794 115.62 47.8558 117.254 47.8558Z" fill="#C4C4C4"/>
<path d="M120.316 63.3592C119.157 63.3579 118.047 62.9154 117.228 62.1287C116.409 61.342 115.948 60.2754 115.947 59.1628C115.947 59.101 115.973 59.0417 116.018 58.998C116.064 58.9542 116.125 58.9297 116.19 58.9297C116.254 58.9297 116.316 58.9542 116.361 58.998C116.407 59.0417 116.432 59.101 116.432 59.1628C116.432 60.1521 116.842 61.1009 117.57 61.8004C118.298 62.4999 119.286 62.8929 120.316 62.8929C121.346 62.8929 122.333 62.4999 123.062 61.8004C123.79 61.1009 124.199 60.1521 124.199 59.1628C124.199 59.101 124.225 59.0417 124.27 58.998C124.316 58.9542 124.377 58.9297 124.442 58.9297C124.506 58.9297 124.568 58.9542 124.613 58.998C124.659 59.0417 124.684 59.101 124.684 59.1628C124.683 60.2754 124.222 61.342 123.403 62.1287C122.584 62.9154 121.474 63.3579 120.316 63.3592Z" fill="#6C63FF"/>
<path d="M128.082 71.2858C127.182 71.2848 126.318 70.9407 125.681 70.3288C125.044 69.7169 124.686 68.8873 124.685 68.022C124.685 67.9601 124.71 67.9008 124.756 67.8571C124.801 67.8134 124.863 67.7888 124.927 67.7888C124.992 67.7888 125.053 67.8134 125.099 67.8571C125.144 67.9008 125.17 67.9601 125.17 68.022C125.17 68.7639 125.477 69.4755 126.023 70.0001C126.569 70.5248 127.31 70.8195 128.082 70.8195C128.855 70.8195 129.596 70.5248 130.142 70.0001C130.688 69.4755 130.995 68.7639 130.995 68.022C130.995 67.9601 131.021 67.9008 131.066 67.8571C131.112 67.8134 131.173 67.7888 131.238 67.7888C131.302 67.7888 131.364 67.8134 131.409 67.8571C131.455 67.9008 131.48 67.9601 131.48 68.022C131.479 68.8873 131.121 69.7169 130.484 70.3288C129.847 70.9407 128.983 71.2848 128.082 71.2858Z" fill="#6C63FF"/>
<path d="M135.849 63.3592C134.691 63.3579 133.58 62.9154 132.761 62.1287C131.942 61.342 131.482 60.2754 131.48 59.1628C131.48 59.101 131.506 59.0417 131.551 58.998C131.597 58.9542 131.659 58.9297 131.723 58.9297C131.787 58.9297 131.849 58.9542 131.895 58.998C131.94 59.0417 131.966 59.101 131.966 59.1628C131.966 60.1521 132.375 61.1009 133.103 61.8004C133.831 62.4999 134.819 62.8929 135.849 62.8929C136.879 62.8929 137.867 62.4999 138.595 61.8004C139.323 61.1009 139.732 60.1521 139.732 59.1628C139.732 59.101 139.758 59.0417 139.803 58.998C139.849 58.9542 139.911 58.9297 139.975 58.9297C140.039 58.9297 140.101 58.9542 140.147 58.998C140.192 59.0417 140.218 59.101 140.218 59.1628C140.216 60.2754 139.756 61.342 138.937 62.1287C138.118 62.9154 137.007 63.3579 135.849 63.3592Z" fill="#6C63FF"/>
<path d="M120.316 61.4942C121.522 61.4942 122.5 60.5548 122.5 59.396C122.5 58.2372 121.522 57.2979 120.316 57.2979C119.109 57.2979 118.131 58.2372 118.131 59.396C118.131 60.5548 119.109 61.4942 120.316 61.4942Z" fill="#6C63FF"/>
<path d="M135.849 61.4942C137.055 61.4942 138.033 60.5548 138.033 59.396C138.033 58.2372 137.055 57.2979 135.849 57.2979C134.643 57.2979 133.665 58.2372 133.665 59.396C133.665 60.5548 134.643 61.4942 135.849 61.4942Z" fill="#6C63FF"/>
<path d="M128.082 70.1201C129.155 70.1201 130.024 69.7026 130.024 69.1875C130.024 68.6725 129.155 68.255 128.082 68.255C127.01 68.255 126.141 68.6725 126.141 69.1875C126.141 69.7026 127.01 70.1201 128.082 70.1201Z" fill="#6C63FF"/>
<path d="M205.519 102.631H192.266V101.714C192.266 101.69 192.261 101.666 192.252 101.644C192.242 101.622 192.228 101.602 192.211 101.585C192.193 101.568 192.172 101.555 192.149 101.546C192.127 101.537 192.102 101.532 192.077 101.532H187.533C187.509 101.532 187.484 101.537 187.461 101.546C187.438 101.555 187.417 101.568 187.4 101.585C187.382 101.602 187.368 101.622 187.358 101.644C187.349 101.666 187.344 101.69 187.344 101.714V102.631H184.504V101.714C184.504 101.69 184.499 101.666 184.49 101.644C184.48 101.622 184.466 101.602 184.449 101.585C184.431 101.568 184.41 101.555 184.387 101.546C184.364 101.537 184.34 101.532 184.315 101.532H179.771C179.746 101.532 179.722 101.537 179.699 101.546C179.676 101.555 179.655 101.568 179.637 101.585C179.62 101.602 179.606 101.622 179.596 101.644C179.587 101.666 179.582 101.69 179.582 101.714V102.631H176.742V101.714C176.742 101.69 176.737 101.666 176.728 101.644C176.718 101.622 176.704 101.602 176.687 101.585C176.669 101.568 176.648 101.555 176.625 101.546C176.602 101.537 176.578 101.532 176.553 101.532H172.009C171.984 101.532 171.96 101.537 171.937 101.546C171.914 101.555 171.893 101.568 171.875 101.585C171.858 101.602 171.844 101.622 171.834 101.644C171.825 101.666 171.82 101.69 171.82 101.714V102.631H168.98V101.714C168.98 101.69 168.975 101.666 168.966 101.644C168.956 101.622 168.942 101.602 168.925 101.585C168.907 101.568 168.886 101.555 168.863 101.546C168.84 101.537 168.816 101.532 168.791 101.532H164.247C164.222 101.532 164.198 101.537 164.175 101.546C164.152 101.555 164.131 101.568 164.113 101.585C164.096 101.602 164.082 101.622 164.072 101.644C164.063 101.666 164.058 101.69 164.058 101.714V102.631H161.218V101.714C161.218 101.69 161.213 101.666 161.204 101.644C161.194 101.622 161.18 101.602 161.163 101.585C161.145 101.568 161.124 101.555 161.101 101.546C161.078 101.537 161.054 101.532 161.029 101.532H156.485C156.46 101.532 156.436 101.537 156.413 101.546C156.39 101.555 156.369 101.568 156.351 101.585C156.334 101.602 156.32 101.622 156.31 101.644C156.301 101.666 156.296 101.69 156.296 101.714V102.631H153.456V101.714C153.456 101.69 153.451 101.666 153.442 101.644C153.432 101.622 153.418 101.602 153.401 101.585C153.383 101.568 153.362 101.555 153.339 101.546C153.316 101.537 153.292 101.532 153.267 101.532H148.723C148.698 101.532 148.674 101.537 148.651 101.546C148.628 101.555 148.607 101.568 148.589 101.585C148.572 101.602 148.558 101.622 148.548 101.644C148.539 101.666 148.534 101.69 148.534 101.714V102.631H145.694V101.714C145.694 101.69 145.689 101.666 145.679 101.644C145.67 101.622 145.656 101.602 145.638 101.585C145.621 101.568 145.6 101.555 145.577 101.546C145.554 101.537 145.529 101.532 145.505 101.532H109.913C109.888 101.532 109.863 101.537 109.84 101.546C109.817 101.555 109.796 101.568 109.779 101.585C109.761 101.602 109.747 101.622 109.738 101.644C109.728 101.666 109.723 101.69 109.723 101.714V102.631H106.884V101.714C106.884 101.69 106.879 101.666 106.869 101.644C106.86 101.622 106.846 101.602 106.828 101.585C106.811 101.568 106.79 101.555 106.767 101.546C106.744 101.537 106.719 101.532 106.694 101.532H102.151C102.126 101.532 102.101 101.537 102.078 101.546C102.055 101.555 102.034 101.568 102.017 101.585C101.999 101.602 101.985 101.622 101.976 101.644C101.966 101.666 101.961 101.69 101.961 101.714V102.631H99.1215V101.714C99.1215 101.69 99.1166 101.666 99.1071 101.644C99.0975 101.622 99.0836 101.602 99.066 101.585C99.0484 101.568 99.0276 101.555 99.0046 101.546C98.9816 101.537 98.957 101.532 98.9321 101.532H94.3885C94.3636 101.532 94.339 101.537 94.3161 101.546C94.2931 101.555 94.2722 101.568 94.2546 101.585C94.237 101.602 94.2231 101.622 94.2136 101.644C94.2041 101.666 94.1992 101.69 94.1992 101.714V102.631H91.3594V101.714C91.3594 101.69 91.3545 101.666 91.345 101.644C91.3355 101.622 91.3215 101.602 91.304 101.585C91.2864 101.568 91.2655 101.555 91.2425 101.546C91.2196 101.537 91.1949 101.532 91.1701 101.532H86.6264C86.6016 101.532 86.5769 101.537 86.554 101.546C86.531 101.555 86.5101 101.568 86.4926 101.585C86.475 101.602 86.461 101.622 86.4515 101.644C86.442 101.666 86.4371 101.69 86.4371 101.714V102.631H83.5973V101.714C83.5973 101.69 83.5924 101.666 83.5829 101.644C83.5734 101.622 83.5594 101.602 83.5419 101.585C83.5243 101.568 83.5034 101.555 83.4805 101.546C83.4575 101.537 83.4329 101.532 83.408 101.532H78.8643C78.8395 101.532 78.8149 101.537 78.7919 101.546C78.7689 101.555 78.7481 101.568 78.7305 101.585C78.7129 101.602 78.699 101.622 78.6894 101.644C78.6799 101.666 78.675 101.69 78.675 101.714V102.631H75.8352V101.714C75.8352 101.69 75.8303 101.666 75.8208 101.644C75.8113 101.622 75.7974 101.602 75.7798 101.585C75.7622 101.568 75.7413 101.555 75.7184 101.546C75.6954 101.537 75.6708 101.532 75.6459 101.532H71.1023C71.0774 101.532 71.0528 101.537 71.0298 101.546C71.0069 101.555 70.986 101.568 70.9684 101.585C70.9508 101.602 70.9369 101.622 70.9274 101.644C70.9179 101.666 70.913 101.69 70.913 101.714V102.631H68.0732V101.714C68.0732 101.69 68.0683 101.666 68.0588 101.644C68.0492 101.622 68.0353 101.602 68.0177 101.585C68.0001 101.568 67.9793 101.555 67.9563 101.546C67.9333 101.537 67.9087 101.532 67.8839 101.532H63.3402C63.3153 101.532 63.2907 101.537 63.2678 101.546C63.2448 101.555 63.2239 101.568 63.2063 101.585C63.1888 101.602 63.1748 101.622 63.1653 101.644C63.1558 101.666 63.1509 101.69 63.1509 101.714V102.631H54.4422C53.8455 102.631 53.2547 102.744 52.7034 102.963C52.1522 103.183 51.6513 103.504 51.2294 103.909C50.8074 104.315 50.4728 104.796 50.2444 105.325C50.0161 105.855 49.8986 106.422 49.8986 106.996V108.969C49.8986 110.126 50.3773 111.237 51.2294 112.055C52.0815 112.874 53.2372 113.333 54.4422 113.333H205.519C206.724 113.333 207.879 112.874 208.732 112.055C209.584 111.237 210.062 110.126 210.062 108.969V106.996C210.062 106.422 209.945 105.855 209.716 105.325C209.488 104.796 209.153 104.315 208.732 103.909C208.31 103.504 207.809 103.183 207.257 102.963C206.706 102.744 206.115 102.631 205.519 102.631Z" fill="#C4C4C4"/>
<path d="M172.165 82.3011H81.5803V82.8175H172.165V82.3011Z" fill="#6C63FF"/>
<path d="M88.0314 82.043H65.7212C66.4352 73.9675 66.4352 65.8483 65.7212 57.7728H88.0314C86.8031 66.0852 86.7312 74.1883 88.0314 82.043Z" fill="#D0CDE1"/>
<path d="M85.0747 62.6785H68.9468V63.7112H85.0747V62.6785Z" fill="#C4C4C4"/>
<path d="M85.0747 66.0349H68.9468V67.0677H85.0747V66.0349Z" fill="#C4C4C4"/>
<path d="M85.0747 69.3915H68.9468V70.4242H85.0747V69.3915Z" fill="#C4C4C4"/>
<path d="M85.0747 72.748H68.9468V73.7808H85.0747V72.748Z" fill="#C4C4C4"/>
<path d="M85.0747 76.1045H68.9468V77.1373H85.0747V76.1045Z" fill="#C4C4C4"/>
<path d="M28.7464 1.03723C28.7464 1.03723 25.241 -0.165324 22.9875 4.64487C20.734 9.45507 17.2285 14.7463 17.2285 14.7463L19.2316 15.2273C19.2316 15.2273 19.7324 11.8602 20.9843 11.3791L20.4836 15.7083C20.4836 15.7083 35.5069 20.759 42.2674 15.2273L42.017 13.5437C42.017 13.5437 43.0185 13.7842 43.0185 15.2273L43.7697 14.5058C43.7697 14.5058 43.0185 13.0627 40.765 11.1386C39.2859 9.87576 38.7777 7.47314 38.603 5.97099C38.4721 4.71667 37.9497 3.52962 37.1041 2.56553C35.6066 0.898411 32.8778 -0.873491 28.7464 1.03723Z" fill="#121217"/>
<path d="M18.6371 107.136L19.7123 113.075L24.013 112.3L24.8194 107.136H18.6371Z" fill="#FFB9B9"/>
<path d="M24.8195 110.493L18.9059 111.009L19.1747 115.657L18.9059 121.595C18.9059 121.595 15.4115 128.308 20.5187 127.792C25.6259 127.275 25.0883 124.693 25.0883 124.693L26.4322 123.144L25.6258 119.271L24.8195 110.493Z" fill="#9D9D9D"/>
<path d="M42.829 107.136L41.7538 113.075L37.453 112.3L36.6466 107.136H42.829Z" fill="#FFB9B9"/>
<path d="M36.6466 110.493L42.5602 111.009L42.2914 115.657L42.5602 121.595C42.5602 121.595 46.0545 128.308 40.9474 127.792C35.8402 127.275 36.3778 124.693 36.3778 124.693L35.0338 123.144L35.8402 119.271L36.6466 110.493Z" fill="#9D9D9D"/>
<path d="M30.4642 17.0268C33.8786 17.0268 36.6466 14.3681 36.6466 11.0883C36.6466 7.80863 33.8786 5.1499 30.4642 5.1499C27.0498 5.1499 24.2819 7.80863 24.2819 11.0883C24.2819 14.3681 27.0498 17.0268 30.4642 17.0268Z" fill="#FFB9B9"/>
<path d="M26.4323 14.1868L27.2386 23.4817L34.765 23.2235C34.765 23.2235 32.6146 17.2851 33.9586 14.9613L26.4323 14.1868Z" fill="#FFB9B9"/>
<path d="M30.733 21.6744L33.8289 19.8196L37.1841 21.4162L42.5601 23.7399L40.6785 45.6863C40.6785 45.6863 44.9793 59.3706 44.1729 66.0836C43.3665 72.7966 53.0432 106.362 45.2481 107.911C37.4529 109.46 31.8082 111.009 31.5394 108.427C31.2706 105.845 30.733 66.3418 30.733 66.3418C30.733 66.3418 29.9266 108.169 26.701 108.686C23.4754 109.202 9.49792 111.267 10.5731 108.169C11.6483 105.071 18.9059 50.8502 22.4002 47.7519L22.9378 45.17L18.3683 24.2563L26.9494 20.1483L30.733 21.6744Z" fill="#9D9D9D"/>
<path d="M14.6051 53.6903L14.3363 64.2762C14.3363 64.2762 11.7489 74.7275 16.1338 74.6658C20.5187 74.604 17.2931 64.2762 17.2931 64.2762L19.1747 53.9485L14.6051 53.6903Z" fill="#FFB9B9"/>
<path d="M55.2509 42.58L62.8051 50.2921C62.8051 50.2921 71.9926 56.4178 68.6838 59.1823C65.375 61.9469 60.6029 52.1873 60.6029 52.1873L52.0269 45.7012L55.2509 42.58Z" fill="#FFB9B9"/>
<path d="M22.5347 47.1063L40.9446 46.5641L40.7054 45.3635V45.3583L22.911 45.0485L22.5347 47.1063Z" fill="#D0CDE1"/>
<path d="M26.2978 47.6227C27.1886 47.6227 27.9106 46.9292 27.9106 46.0736C27.9106 45.218 27.1886 44.5244 26.2978 44.5244C25.4071 44.5244 24.6851 45.218 24.6851 46.0736C24.6851 46.9292 25.4071 47.6227 26.2978 47.6227Z" fill="#2F2E41"/>
<path d="M20.5187 24.5145L18.7715 24.1272C18.7715 24.1272 16.4867 25.0309 15.9491 27.871C15.4115 30.7111 8.42279 52.9158 11.9172 54.2067C15.4115 55.4977 20.5187 56.0141 20.5187 55.4977C20.5187 54.9813 22.6691 35.6168 22.6691 35.6168L20.5187 24.5145Z" fill="#9D9D9D"/>
<path d="M36.9598 25.4986L42.5602 23.7399C42.5602 23.7399 45.2481 23.7399 45.2481 26.58C45.2481 27.7516 50.3997 37.3755 50.3997 37.3755C50.3997 37.3755 62.7778 45.8507 60.8829 46.1541C57.6573 46.6705 55.7757 52.0925 55.7757 52.0925L43.6798 41.7648L36.9598 25.4986Z" fill="#9D9D9D"/>
<path d="M22.9241 11.5307C22.9241 11.5307 24.9272 8.8851 26.6799 8.40408C28.4326 7.92306 28.683 5.51796 28.683 5.51796C28.683 5.51796 33.19 10.3282 35.9443 10.5687C38.6986 10.8092 36.1947 4.79642 36.1947 4.79642L31.1869 3.59387L26.4295 4.07489L22.6737 6.47999L22.9241 11.5307Z" fill="#121217"/>
<path d="M24.4163 11.3466C24.8616 11.3466 25.2227 10.8264 25.2227 10.1847C25.2227 9.54301 24.8616 9.02283 24.4163 9.02283C23.9709 9.02283 23.6099 9.54301 23.6099 10.1847C23.6099 10.8264 23.9709 11.3466 24.4163 11.3466Z" fill="#FFB9B9"/>
</g>
<defs>
<clipPath id="clip0_42_1403">
<rect width="227" height="127.611" fill="white" transform="translate(0 0.209106)"/>
</clipPath>
</defs>
</svg>
