<svg width="138" height="89" viewBox="0 0 138 89" fill="none" xmlns="http://www.w3.org/2000/svg">
<g clip-path="url(#clip0_42_1443)">
<path d="M79.5255 4.66257C80.7092 6.79709 78.2009 7.40169 75.3277 8.54577C72.4544 9.68985 70.3042 10.9402 69.1205 8.80564C67.9368 6.67112 66.9764 2.43448 71.0411 0.815979C75.2458 -0.858274 78.3418 2.52804 79.5255 4.66257Z" fill="#443EB5"/>
<path d="M73.6632 8.8603C75.7994 8.8603 77.5312 7.39286 77.5312 5.58268C77.5312 3.7725 75.7994 2.30505 73.6632 2.30505C71.5269 2.30505 69.7952 3.7725 69.7952 5.58268C69.7952 7.39286 71.5269 8.8603 73.6632 8.8603Z" fill="#FFB8B8"/>
<path d="M92.8261 20.1183C92.6922 19.9702 92.5583 19.8247 92.4229 19.6833C92.2481 19.4991 92.0723 19.3207 91.8953 19.1481C89.8905 17.1878 87.7582 15.9534 85.4101 15.8213H85.407L85.3723 15.8186L80.6934 19.6833L79.1028 20.9964L79.1375 21.0685L79.9957 22.8793H95.034C94.3564 21.9264 93.6194 21.0048 92.8261 20.1183Z" fill="#2F2E41"/>
<path d="M69.4571 6.90225L70.8417 6.35092L70.6488 4.65835L71.5747 6.05906L72.2365 5.79554L72.124 4.80821L72.6641 5.62528L77.5815 3.66725C77.1197 2.83441 76.2863 2.19115 75.2647 1.87898C74.2432 1.5668 73.1171 1.61128 72.1342 2.00264L71.4216 2.28641C70.4387 2.67777 69.6796 3.38394 69.3112 4.24958C68.9428 5.11522 68.9953 6.06941 69.4571 6.90225Z" fill="#443EB5"/>
<path d="M101.503 66.3965H20.7389C20.05 66.3958 19.3895 66.1636 18.9023 65.7508C18.4152 65.338 18.1412 64.7783 18.1404 64.1946V23.072C18.1409 22.6444 18.3417 22.2343 18.6986 21.9319C19.0555 21.6295 19.5393 21.4594 20.044 21.4589H102.165C102.679 21.4594 103.171 21.6324 103.534 21.9401C103.897 22.2477 104.101 22.6648 104.102 23.0999V64.1946C104.101 64.7783 103.827 65.338 103.34 65.7508C102.853 66.1636 102.192 66.3958 101.503 66.3965Z" fill="#F2F2F2"/>
<path d="M23.2587 64.1945H98.9837C99.652 64.1945 100.293 63.9696 100.765 63.5691C101.238 63.1687 101.503 62.6256 101.503 62.0593V27.1563C101.503 26.59 101.238 26.0469 100.765 25.6465C100.293 25.2461 99.652 25.0211 98.9837 25.0211H23.2587C22.5904 25.0211 21.9495 25.2461 21.4769 25.6465C21.0044 26.0469 20.7389 26.59 20.7389 27.1563V62.0593C20.7389 62.6256 21.0044 63.1687 21.4769 63.5691C21.9495 63.9696 22.5904 64.1945 23.2587 64.1945Z" fill="white"/>
<path d="M104.066 22.9461H18.1039V21.8251C18.1049 21.2394 18.38 20.6779 18.8689 20.2639C19.3579 19.8499 20.0206 19.6171 20.7118 19.6166H101.458C102.149 19.6171 102.812 19.8499 103.301 20.2639C103.79 20.6779 104.065 21.2394 104.066 21.8251V22.9461Z" fill="#6C63FF"/>
<path d="M22.8435 21.8562C23.2161 21.8562 23.5181 21.6003 23.5181 21.2846C23.5181 20.9689 23.2161 20.713 22.8435 20.713C22.471 20.713 22.1689 20.9689 22.1689 21.2846C22.1689 21.6003 22.471 21.8562 22.8435 21.8562Z" fill="white"/>
<path d="M25.4039 21.8562C25.7765 21.8562 26.0785 21.6003 26.0785 21.2846C26.0785 20.9689 25.7765 20.713 25.4039 20.713C25.0314 20.713 24.7294 20.9689 24.7294 21.2846C24.7294 21.6003 25.0314 21.8562 25.4039 21.8562Z" fill="white"/>
<path d="M27.9645 21.8562C28.3371 21.8562 28.6391 21.6003 28.6391 21.2846C28.6391 20.9689 28.3371 20.713 27.9645 20.713C27.5919 20.713 27.2899 20.9689 27.2899 21.2846C27.2899 21.6003 27.5919 21.8562 27.9645 21.8562Z" fill="white"/>
<path d="M63.4841 56.6252H56.7122C56.3155 56.6249 55.9352 56.4912 55.6548 56.2535C55.3743 56.0158 55.2165 55.6936 55.2161 55.3575V49.6192C55.2165 49.2831 55.3743 48.9608 55.6548 48.7232C55.9352 48.4855 56.3155 48.3518 56.7122 48.3514H63.4841C63.8807 48.3518 64.261 48.4855 64.5415 48.7232C64.8219 48.9608 64.9797 49.2831 64.9802 49.6192V55.3575C64.9797 55.6936 64.8219 56.0158 64.5415 56.2535C64.261 56.4912 63.8807 56.6249 63.4841 56.6252ZM56.7122 48.6183C56.399 48.6186 56.0988 48.7242 55.8774 48.9118C55.6559 49.0994 55.5314 49.3538 55.531 49.6192V55.3575C55.5314 55.6228 55.6559 55.8772 55.8774 56.0649C56.0988 56.2525 56.399 56.3581 56.7122 56.3583H63.4841C63.7972 56.3581 64.0974 56.2525 64.3189 56.0649C64.5403 55.8772 64.6648 55.6228 64.6652 55.3575V49.6192C64.6648 49.3538 64.5403 49.0994 64.3189 48.9118C64.0974 48.7242 63.7972 48.6186 63.4841 48.6183H56.7122Z" fill="#CCCCCC"/>
<path d="M62.1453 55.0239H58.0507C57.9254 55.0238 57.8054 54.9816 57.7168 54.9065C57.6282 54.8315 57.5784 54.7297 57.5782 54.6236V50.3532C57.5784 50.2471 57.6282 50.1453 57.7168 50.0703C57.8054 49.9952 57.9254 49.953 58.0507 49.9529H61.0176C61.1253 49.953 61.2297 49.9841 61.3136 50.0412L62.4412 50.809C62.4965 50.8464 62.541 50.8939 62.5716 50.9479C62.6022 51.002 62.6179 51.0612 62.6178 51.1211V54.6236C62.6176 54.7297 62.5678 54.8315 62.4793 54.9065C62.3907 54.9816 62.2706 55.0238 62.1453 55.0239ZM58.0507 50.2198C58.009 50.2198 57.9689 50.2339 57.9394 50.2589C57.9099 50.2839 57.8933 50.3178 57.8932 50.3532V54.6236C57.8933 54.6589 57.9099 54.6929 57.9394 54.7179C57.9689 54.7429 58.009 54.757 58.0507 54.757H62.1453C62.1871 54.757 62.2271 54.7429 62.2566 54.7179C62.2861 54.6929 62.3028 54.6589 62.3028 54.6236V51.1211C62.3029 51.1011 62.2976 51.0814 62.2874 51.0634C62.2772 51.0454 62.2624 51.0295 62.244 51.0171L61.1162 50.2492C61.0882 50.2302 61.0535 50.2198 61.0176 50.2198H58.0507Z" fill="#CCCCCC"/>
<path d="M61.3579 51.8211H58.8381C58.7964 51.8211 58.7563 51.807 58.7268 51.782C58.6972 51.757 58.6807 51.723 58.6807 51.6876C58.6807 51.6523 58.6972 51.6183 58.7268 51.5933C58.7563 51.5683 58.7964 51.5542 58.8381 51.5542H61.3579C61.3997 51.5542 61.4397 51.5683 61.4693 51.5933C61.4988 51.6183 61.5154 51.6523 61.5154 51.6876C61.5154 51.723 61.4988 51.757 61.4693 51.782C61.4397 51.807 61.3997 51.8211 61.3579 51.8211Z" fill="#CCCCCC"/>
<path d="M61.3579 52.6218H58.8381C58.7964 52.6218 58.7563 52.6077 58.7268 52.5827C58.6972 52.5576 58.6807 52.5237 58.6807 52.4883C58.6807 52.4529 58.6972 52.419 58.7268 52.3939C58.7563 52.3689 58.7964 52.3549 58.8381 52.3549H61.3579C61.3997 52.3549 61.4397 52.3689 61.4693 52.3939C61.4988 52.419 61.5154 52.4529 61.5154 52.4883C61.5154 52.5237 61.4988 52.5576 61.4693 52.5827C61.4397 52.6077 61.3997 52.6218 61.3579 52.6218Z" fill="#CCCCCC"/>
<path d="M61.3579 53.4225H58.8381C58.7964 53.4225 58.7563 53.4085 58.7268 53.3835C58.6972 53.3584 58.6807 53.3245 58.6807 53.2891C58.6807 53.2537 58.6972 53.2198 58.7268 53.1947C58.7563 53.1697 58.7964 53.1556 58.8381 53.1556H61.3579C61.3997 53.1556 61.4397 53.1697 61.4693 53.1947C61.4988 53.2198 61.5154 53.2537 61.5154 53.2891C61.5154 53.3245 61.4988 53.3584 61.4693 53.3835C61.4397 53.4085 61.3997 53.4225 61.3579 53.4225Z" fill="#CCCCCC"/>
<path d="M79.5475 56.6252H72.7757C72.379 56.6249 71.9987 56.4912 71.7182 56.2535C71.4378 56.0158 71.28 55.6936 71.2795 55.3575V49.6192C71.28 49.2831 71.4378 48.9608 71.7182 48.7232C71.9987 48.4855 72.379 48.3518 72.7757 48.3514H79.5475C79.9442 48.3518 80.3245 48.4855 80.6049 48.7232C80.8854 48.9608 81.0432 49.2831 81.0436 49.6192V55.3575C81.0432 55.6936 80.8854 56.0158 80.6049 56.2535C80.3245 56.4912 79.9442 56.6249 79.5475 56.6252ZM72.7757 48.6183C72.4625 48.6186 72.1623 48.7242 71.9408 48.9118C71.7194 49.0994 71.5949 49.3538 71.5945 49.6192V55.3575C71.5949 55.6228 71.7194 55.8772 71.9408 56.0649C72.1623 56.2525 72.4625 56.3581 72.7757 56.3583H79.5475C79.8607 56.3581 80.1609 56.2525 80.3823 56.0649C80.6038 55.8772 80.7283 55.6228 80.7287 55.3575V49.6192C80.7283 49.3538 80.6038 49.0994 80.3823 48.9118C80.1609 48.7242 79.8607 48.6186 79.5475 48.6183H72.7757Z" fill="#CCCCCC"/>
<path d="M78.3663 53.9564H73.9567C73.8314 53.9563 73.7114 53.9141 73.6228 53.839C73.5342 53.7639 73.4844 53.6622 73.4843 53.556V51.4209C73.4844 51.3147 73.5342 51.2129 73.6228 51.1379C73.7114 51.0628 73.8314 51.0206 73.9567 51.0205H78.3663C78.4916 51.0206 78.6117 51.0628 78.7002 51.1379C78.7888 51.2129 78.8386 51.3147 78.8388 51.4209V53.556C78.8386 53.6622 78.7888 53.7639 78.7002 53.839C78.6117 53.9141 78.4916 53.9563 78.3663 53.9564ZM73.9567 51.2874C73.915 51.2874 73.8749 51.3015 73.8454 51.3265C73.8159 51.3515 73.7993 51.3855 73.7992 51.4209V53.556C73.7993 53.5914 73.8159 53.6253 73.8454 53.6504C73.8749 53.6754 73.915 53.6894 73.9567 53.6895H78.3663C78.4081 53.6894 78.4481 53.6754 78.4776 53.6504C78.5072 53.6253 78.5238 53.5914 78.5238 53.556V51.4209C78.5238 51.3855 78.5072 51.3515 78.4776 51.3265C78.4481 51.3015 78.4081 51.2874 78.3663 51.2874H73.9567Z" fill="#CCCCCC"/>
<path d="M76.1616 52.8405C76.0732 52.8406 75.9864 52.8197 75.9113 52.7801L73.5584 51.534C73.523 51.5152 73.4979 51.4853 73.4886 51.4508C73.4793 51.4164 73.4865 51.3802 73.5086 51.3502C73.5307 51.3202 73.566 51.2989 73.6066 51.2909C73.6473 51.2829 73.69 51.289 73.7254 51.3076L76.0783 52.5537C76.1033 52.5669 76.1322 52.5738 76.1617 52.5738C76.1912 52.5738 76.2201 52.5669 76.2452 52.5537L78.5979 51.3076C78.6333 51.289 78.676 51.2829 78.7167 51.2909C78.7573 51.2989 78.7926 51.3202 78.8147 51.3502C78.8368 51.3802 78.844 51.4164 78.8347 51.4508C78.8253 51.4853 78.8003 51.5152 78.7649 51.534L76.4122 52.7801C76.337 52.8197 76.2502 52.8406 76.1616 52.8405Z" fill="#CCCCCC"/>
<path d="M47.4205 56.6252H40.6486C40.2519 56.6249 39.8716 56.4912 39.5912 56.2535C39.3107 56.0158 39.1529 55.6936 39.1525 55.3575V49.6192C39.1529 49.2831 39.3107 48.9608 39.5912 48.7232C39.8716 48.4855 40.2519 48.3518 40.6486 48.3514H47.4205C47.8171 48.3518 48.1974 48.4855 48.4779 48.7232C48.7583 48.9608 48.9161 49.2831 48.9166 49.6192V55.3575C48.9161 55.6936 48.7583 56.0158 48.4779 56.2535C48.1974 56.4912 47.8171 56.6249 47.4205 56.6252ZM40.6486 48.6183C40.3354 48.6186 40.0352 48.7242 39.8138 48.9118C39.5923 49.0994 39.4678 49.3538 39.4674 49.6192V55.3575C39.4678 55.6228 39.5923 55.8772 39.8138 56.0649C40.0352 56.2525 40.3354 56.3581 40.6486 56.3583H47.4205C47.7336 56.3581 48.0338 56.2525 48.2553 56.0649C48.4767 55.8772 48.6012 55.6228 48.6016 55.3575V49.6192C48.6012 49.3538 48.4767 49.0994 48.2553 48.9118C48.0338 48.7242 47.7336 48.6186 47.4205 48.6183H40.6486Z" fill="#CCCCCC"/>
<path d="M46.2393 53.9564H41.8298C41.7045 53.9563 41.5844 53.9141 41.4958 53.839C41.4073 53.7639 41.3574 53.6622 41.3573 53.556V51.4209C41.3574 51.3147 41.4073 51.2129 41.4958 51.1379C41.5844 51.0628 41.7045 51.0206 41.8298 51.0205H46.2393C46.3646 51.0206 46.4847 51.0628 46.5733 51.1379C46.6618 51.2129 46.7117 51.3147 46.7118 51.4209V53.556C46.7117 53.6622 46.6618 53.7639 46.5733 53.839C46.4847 53.9141 46.3646 53.9563 46.2393 53.9564ZM41.8298 51.2874C41.788 51.2874 41.748 51.3015 41.7184 51.3265C41.6889 51.3515 41.6723 51.3855 41.6723 51.4209V53.556C41.6723 53.5914 41.6889 53.6253 41.7184 53.6504C41.748 53.6754 41.788 53.6894 41.8298 53.6895H46.2393C46.2811 53.6894 46.3211 53.6754 46.3507 53.6504C46.3802 53.6253 46.3968 53.5914 46.3968 53.556V51.4209C46.3968 51.3855 46.3802 51.3515 46.3507 51.3265C46.3211 51.3015 46.2811 51.2874 46.2393 51.2874H41.8298Z" fill="#CCCCCC"/>
<path d="M45.5404 53.9564H42.3712C42.3159 53.9564 42.2615 53.944 42.2136 53.9206C42.1658 53.8972 42.126 53.8635 42.0983 53.8229C42.0707 53.7824 42.0561 53.7363 42.0562 53.6895C42.0562 53.6426 42.0707 53.5966 42.0984 53.556L43.053 52.1548C43.0806 52.1142 43.1204 52.0805 43.1683 52.0571C43.2162 52.0337 43.2705 52.0214 43.3258 52.0214C43.3811 52.0214 43.4354 52.0337 43.4833 52.0571C43.5312 52.0805 43.5709 52.1142 43.5986 52.1548L44.2151 53.0598L44.5723 52.5355C44.6 52.4949 44.6397 52.4612 44.6876 52.4378C44.7355 52.4144 44.7898 52.402 44.8451 52.402C44.9004 52.402 44.9547 52.4144 45.0026 52.4378C45.0505 52.4612 45.0903 52.4949 45.1179 52.5355L45.8132 53.556C45.8409 53.5966 45.8554 53.6426 45.8554 53.6895C45.8554 53.7363 45.8408 53.7824 45.8132 53.8229C45.7855 53.8635 45.7458 53.8972 45.6979 53.9206C45.65 53.944 45.5957 53.9564 45.5404 53.9564H45.5404ZM45.5404 53.6895L44.8451 52.6689L44.3516 53.3934C44.3377 53.4137 44.3179 53.4305 44.2939 53.4422C44.27 53.4539 44.2428 53.4601 44.2152 53.4601C44.1875 53.4601 44.1603 53.4539 44.1364 53.4422C44.1124 53.4305 44.0926 53.4137 44.0787 53.3934L43.3258 52.2883L42.3712 53.6895H45.5404Z" fill="#CCCCCC"/>
<path d="M45.7669 52.088C45.9408 52.088 46.0818 51.9685 46.0818 51.8211C46.0818 51.6737 45.9408 51.5542 45.7669 51.5542C45.5929 51.5542 45.4519 51.6737 45.4519 51.8211C45.4519 51.9685 45.5929 52.088 45.7669 52.088Z" fill="#CCCCCC"/>
<path d="M121.079 86.8607L119.148 86.8605L118.229 80.55L121.079 80.5502L121.079 86.8607Z" fill="#FFB8B8"/>
<path d="M121.571 88.4466L115.346 88.4464V88.3797C115.346 88.11 115.408 87.843 115.53 87.5939C115.652 87.3448 115.83 87.1185 116.055 86.9278C116.28 86.7371 116.548 86.5859 116.842 86.4827C117.136 86.3795 117.451 86.3264 117.769 86.3264H117.769L121.571 86.3266L121.571 88.4466Z" fill="#2F2E41"/>
<path d="M128.953 86.8607L127.022 86.8605L126.104 80.55L128.953 80.5502L128.953 86.8607Z" fill="#FFB8B8"/>
<path d="M129.445 88.4466L123.22 88.4464V88.3797C123.22 88.11 123.283 87.843 123.404 87.5939C123.526 87.3448 123.705 87.1185 123.93 86.9278C124.155 86.7371 124.422 86.5859 124.716 86.4827C125.01 86.3795 125.325 86.3264 125.643 86.3264H125.643L129.446 86.3266L129.445 88.4466Z" fill="#2F2E41"/>
<path d="M128.374 84.125L126.586 83.6641C126.453 83.6298 126.334 83.5631 126.246 83.4721C126.157 83.3811 126.102 83.2699 126.087 83.1526L124.42 69.7642C124.419 69.748 124.411 69.7329 124.397 69.7218C124.383 69.7107 124.364 69.7045 124.345 69.7045C124.326 69.703 124.307 69.7078 124.292 69.718C124.277 69.7282 124.267 69.7429 124.265 69.7591L121.472 82.7302C121.455 82.8089 121.42 82.8839 121.368 82.9509C121.317 83.0179 121.25 83.0754 121.171 83.1202C121.093 83.1649 121.005 83.196 120.912 83.2115C120.82 83.227 120.725 83.2267 120.632 83.2106L118.347 82.8116C118.179 82.7819 118.03 82.702 117.926 82.5865C117.823 82.471 117.772 82.3276 117.783 82.1828L119.481 60.9229L130.999 59.8698L129.288 83.587C129.277 83.7395 129.198 83.8827 129.066 83.9875C128.935 84.0923 128.762 84.1508 128.582 84.1512C128.511 84.1512 128.441 84.1424 128.374 84.125Z" fill="#2F2E41"/>
<path d="M128.363 42.4089C130.499 42.4089 132.231 40.9414 132.231 39.1313C132.231 37.3211 130.499 35.8536 128.363 35.8536C126.227 35.8536 124.495 37.3211 124.495 39.1313C124.495 40.9414 126.227 42.4089 128.363 42.4089Z" fill="#FFB8B8"/>
<path d="M119.464 61.0478L121.961 47.7229C122.094 47.0144 122.403 46.338 122.868 45.7387C123.334 45.1394 123.944 44.631 124.659 44.2472C125.375 43.8634 126.178 43.6131 127.016 43.5129C127.855 43.4127 128.708 43.4649 129.521 43.6661C130.942 44.0143 132.158 44.7988 132.933 45.8664C133.708 46.934 133.985 48.2079 133.71 49.4394L131.098 61.3392L119.464 61.0478Z" fill="#6C63FF"/>
<path d="M129.431 63.432C129.624 63.3239 129.787 63.1812 129.908 63.014C130.029 62.8468 130.106 62.6591 130.132 62.4642C130.158 62.2693 130.134 62.0718 130.06 61.8858C129.987 61.6998 129.866 61.5297 129.706 61.3875L132.288 57.1504L129.38 57.4134L127.374 61.3967C127.11 61.6396 126.96 61.9562 126.953 62.2864C126.946 62.6167 127.082 62.9376 127.336 63.1885C127.589 63.4394 127.943 63.6027 128.329 63.6476C128.715 63.6925 129.107 63.6157 129.431 63.432V63.432Z" fill="#FFB8B8"/>
<path d="M129.984 60.6402C129.841 60.6231 129.708 60.5695 129.602 60.4866L128.614 59.7131C128.507 59.6291 128.434 59.5194 128.403 59.3988C128.372 59.2781 128.386 59.1524 128.442 59.0386L130.416 55.0728L130.136 47.2367C130.177 46.9848 130.275 46.7421 130.426 46.5225C130.577 46.3029 130.778 46.1106 131.017 45.9567C131.255 45.8028 131.528 45.6903 131.818 45.6256C132.108 45.5609 132.41 45.5453 132.707 45.5796C133.005 45.614 133.291 45.6977 133.55 45.8258C133.809 45.954 134.036 46.1242 134.217 46.3267C134.398 46.5291 134.531 46.7599 134.607 47.0058C134.683 47.2517 134.701 47.5078 134.66 47.7597L135.139 52.6855C135.285 54.1805 134.785 55.6695 133.732 56.8754L130.653 60.4027C130.593 60.4705 130.518 60.527 130.431 60.5684C130.345 60.6099 130.249 60.6355 130.149 60.6434C130.094 60.6479 130.039 60.6468 129.984 60.6402Z" fill="#6C63FF"/>
<path d="M106.089 37.3455C106.131 37.5384 106.222 37.7211 106.357 37.8808C106.491 38.0404 106.665 38.1732 106.867 38.2697C107.069 38.3661 107.293 38.424 107.524 38.4391C107.754 38.4542 107.986 38.4263 108.203 38.3572L111.801 42.0242L112.649 39.6525L109.102 36.534C108.941 36.2332 108.656 35.9929 108.3 35.8586C107.943 35.7243 107.542 35.7054 107.17 35.8054C106.799 35.9054 106.483 36.1175 106.284 36.4013C106.085 36.6851 106.015 37.0211 106.089 37.3455Z" fill="#FFB8B8"/>
<path d="M108.907 38.8654C108.981 38.7606 109.091 38.6775 109.223 38.6271L110.449 38.1578C110.582 38.1073 110.73 38.0925 110.873 38.1156C111.016 38.1386 111.147 38.1983 111.249 38.2866L114.789 41.3736L123.414 44.2102C123.672 44.3398 123.897 44.5113 124.077 44.7147C124.257 44.9182 124.388 45.1498 124.462 45.3961C124.536 45.6424 124.552 45.8988 124.509 46.1504C124.467 46.402 124.366 46.644 124.212 46.8626C124.059 47.0812 123.857 47.272 123.616 47.4242C123.376 47.5764 123.103 47.6869 122.812 47.7495C122.521 47.8121 122.218 47.8255 121.922 47.7889C121.625 47.7524 121.339 47.6666 121.081 47.5365L115.542 45.9896C113.86 45.5204 112.437 44.5495 111.537 43.2577L108.904 39.4798C108.854 39.4071 108.822 39.3262 108.811 39.2424C108.799 39.1586 108.809 39.0737 108.839 38.9933C108.856 38.9485 108.878 38.9056 108.907 38.8654Z" fill="#6C63FF"/>
<path opacity="0.1" d="M131.501 50.4963L131.343 54.7667L128.442 59.0385L130.864 54.278L131.501 50.4963Z" fill="black"/>
<path d="M127.92 39.7473C127.677 39.774 127.431 39.7252 127.227 39.6097C127.024 39.4943 126.876 39.3202 126.813 39.1198C126.752 38.889 126.617 38.6768 126.424 38.5058C126.232 38.3348 125.987 38.2115 125.718 38.1491C125.009 38.0117 124.141 38.2947 123.622 37.8392C123.51 37.7352 123.43 37.6103 123.387 37.4747C123.343 37.3392 123.339 37.1969 123.373 37.0596C123.469 36.6169 123.843 36.2825 124.25 36.015C125.105 35.4547 126.141 35.1268 127.221 35.0741C127.78 35.0604 128.339 35.084 128.893 35.1446C129.474 35.1756 130.048 35.2646 130.604 35.4095C131.238 35.6121 131.801 35.9467 132.241 36.3824C132.682 36.8181 132.985 37.3409 133.124 37.9024C133.251 38.4656 133.232 39.0456 133.067 39.6017C132.902 40.1579 132.596 40.6769 132.17 41.1225C131.66 41.6606 131.003 42.0848 130.255 42.3581C130.077 42.4293 129.873 42.4381 129.687 42.3825C129.222 42.2256 129.298 41.7367 129.51 41.4107C129.737 41.0617 130.087 40.7239 129.904 40.2992C129.813 40.1023 129.637 39.9419 129.412 39.85C128.949 39.6499 128.431 39.6973 127.933 39.746L127.92 39.7473Z" fill="#ADB67A"/>
<path d="M104.796 41.5982H56.9205C56.2316 41.5975 55.5711 41.3653 55.084 40.9525C54.5968 40.5397 54.3228 39.9801 54.322 39.3963V30.7222C54.3228 30.1384 54.5968 29.5787 55.084 29.1659C55.5711 28.7531 56.2316 28.5209 56.9205 28.5203H104.796C105.485 28.5209 106.146 28.7531 106.633 29.1659C107.12 29.5787 107.394 30.1384 107.395 30.7222V39.3963C107.394 39.9801 107.12 40.5397 106.633 40.9525C106.146 41.3653 105.485 41.5975 104.796 41.5982Z" fill="white"/>
<path d="M104.796 41.6649H56.9204C56.2106 41.6642 55.5301 41.4249 55.0282 40.9996C54.5263 40.5743 54.244 39.9977 54.2432 39.3962V30.7221C54.244 30.1206 54.5263 29.544 55.0282 29.1187C55.5301 28.6934 56.2106 28.4542 56.9204 28.4535H104.796C105.506 28.4542 106.186 28.6934 106.688 29.1187C107.19 29.544 107.472 30.1206 107.473 30.7221V39.3962C107.472 39.9977 107.19 40.5743 106.688 40.9996C106.186 41.4249 105.506 41.6642 104.796 41.6649ZM56.9204 28.7204C56.2941 28.721 55.6937 28.9321 55.2508 29.3073C54.808 29.6826 54.5588 30.1914 54.5581 30.7221V39.3962C54.5588 39.9269 54.808 40.4357 55.2508 40.811C55.6937 41.1863 56.2941 41.3974 56.9204 41.398H104.796C105.422 41.3974 106.023 41.1863 106.466 40.811C106.908 40.4357 107.158 39.9269 107.158 39.3962V30.7221C107.158 30.1914 106.908 29.6826 106.466 29.3073C106.023 28.9321 105.422 28.721 104.796 28.7204H56.9204Z" fill="#3F3D56"/>
<path d="M98.9691 39.463H62.7474C62.0585 39.4623 61.398 39.2301 60.9109 38.8173C60.4237 38.4046 60.1497 37.8449 60.1489 37.2611V32.7239C60.1497 32.1401 60.4237 31.5804 60.9109 31.1676C61.398 30.7548 62.0585 30.5226 62.7474 30.522H98.9691C99.658 30.5226 100.319 30.7548 100.806 31.1676C101.293 31.5804 101.567 32.1401 101.568 32.7239V37.2611C101.567 37.8449 101.293 38.4046 100.806 38.8173C100.319 39.2301 99.658 39.4623 98.9691 39.463Z" fill="#F2F2F2"/>
<path d="M70.5421 37.0174C72.2584 37.0174 73.6497 35.8385 73.6497 34.3842C73.6497 32.9299 72.2584 31.751 70.5421 31.751C68.8259 31.751 67.4346 32.9299 67.4346 34.3842C67.4346 35.8385 68.8259 37.0174 70.5421 37.0174Z" fill="#FF6584"/>
<path d="M137.843 88.6386H107.605C107.564 88.6386 107.524 88.6245 107.494 88.5995C107.464 88.5745 107.448 88.5405 107.448 88.5051C107.448 88.4698 107.464 88.4358 107.494 88.4108C107.524 88.3858 107.564 88.3717 107.605 88.3717H137.843C137.884 88.3717 137.924 88.3858 137.954 88.4108C137.983 88.4358 138 88.4698 138 88.5051C138 88.5405 137.983 88.5745 137.954 88.5995C137.924 88.6245 137.884 88.6386 137.843 88.6386Z" fill="#CCCCCC"/>
<path d="M95.1301 17.9697C95.0043 17.7965 94.8382 17.6468 94.6419 17.5298C94.4456 17.4128 94.2232 17.3309 93.9883 17.2891C93.9022 17.2738 93.8148 17.2644 93.7269 17.2611L81.7281 8.1706C81.4924 7.96533 81.178 7.83804 80.8414 7.81162C80.7751 7.80516 80.7082 7.80337 80.6414 7.80629C80.3646 7.81695 80.0974 7.89573 79.8726 8.033C79.6477 8.17027 79.4749 8.36009 79.3754 8.57924C79.2758 8.79838 79.2538 9.03737 79.3119 9.26697C79.3701 9.49657 79.5059 9.70684 79.7028 9.87206L84.2967 13.2656L91.8402 18.8371C91.8464 18.942 91.8649 19.0462 91.8953 19.148C91.9856 19.4431 92.1796 19.7079 92.4516 19.9074C92.7236 20.1069 93.0607 20.2316 93.4182 20.265C93.7443 20.2973 94.0745 20.251 94.371 20.1316C94.6061 20.0384 94.8145 19.9032 94.982 19.7352C94.9994 19.7179 95.0151 19.7018 95.0309 19.6832C95.2511 19.44 95.3786 19.1457 95.3963 18.8396C95.414 18.5334 95.3211 18.23 95.1301 17.9697H95.1301Z" fill="#FFB8B8"/>
<path d="M74.6066 26.7306L74.4948 22.8793L74.4003 19.6832L74.3357 17.4466L74.2082 13.0869C74.1829 12.8535 74.078 12.6313 73.9063 12.4476C73.7346 12.2638 73.5034 12.1264 73.2411 12.0521C72.9787 11.9778 72.6965 11.9699 72.4289 12.0292C72.1613 12.0885 71.9198 12.2126 71.7341 12.3863C71.6903 12.426 71.6508 12.4688 71.616 12.5144C71.4221 12.7497 71.3348 13.0364 71.3703 13.3218L71.6506 19.6832L71.7908 22.8793L71.9703 26.9562C71.9185 27.0161 71.8717 27.0789 71.8302 27.1443C71.7182 27.3243 71.6505 27.5216 71.6313 27.7244C71.6121 27.9272 71.6417 28.1312 71.7184 28.324C71.7984 28.5262 71.928 28.7117 72.0988 28.8683C72.2695 29.025 72.4775 29.1492 72.709 29.2328C72.9405 29.3164 73.1903 29.3575 73.442 29.3533C73.6936 29.3492 73.9413 29.2999 74.1688 29.2088C74.433 29.1029 74.6624 28.9435 74.8367 28.7447C75.011 28.5458 75.1249 28.3137 75.1681 28.0687C75.2114 27.8237 75.1828 27.5735 75.0849 27.3402C74.987 27.1068 74.8227 26.8974 74.6066 26.7306H74.6066Z" fill="#FFB8B8"/>
<path d="M85.4101 15.8212L84.2967 13.2657L82.495 9.12615C82.365 8.82496 82.1567 8.55244 81.8854 8.32881C81.6141 8.10518 81.2869 7.93619 80.928 7.83437C80.8997 7.82636 80.8698 7.81836 80.8414 7.81168C80.4938 7.72226 80.1274 7.69767 79.7675 7.7396C79.4076 7.78152 79.0626 7.88897 78.7563 8.05455L72.6884 11.316C72.1327 11.614 71.7354 12.0834 71.5806 12.625C71.4257 13.1666 71.5253 13.738 71.8584 14.2185C72.6173 15.3304 73.4441 16.4079 74.3357 17.4466C75.0428 18.262 76.3594 18.3487 76.5878 19.6832H81.0619L85.5912 16.2376L85.4101 15.8212Z" fill="#CCCCCC"/>
<path d="M15.9319 47.0537C17.9473 47.0537 19.5811 45.6693 19.5811 43.9615C19.5811 42.2537 17.9473 40.8693 15.9319 40.8693C13.9165 40.8693 12.2827 42.2537 12.2827 43.9615C12.2827 45.6693 13.9165 47.0537 15.9319 47.0537Z" fill="#A0616A"/>
<path d="M24.8907 41.833C24.9267 41.8572 24.9616 41.883 24.9953 41.9101C25.1629 42.0439 25.2953 42.2063 25.3838 42.3864C25.4722 42.5666 25.5147 42.7606 25.5085 42.9557C25.5023 43.1508 25.4476 43.3426 25.3478 43.5185C25.248 43.6944 25.1055 43.8504 24.9296 43.9764C24.8886 44.0055 24.8458 44.0329 24.8015 44.0582L25.0484 51.1236C25.0555 51.3549 24.9743 51.582 24.817 51.7711C24.6597 51.9602 24.4346 52.1013 24.1752 52.1735L24.1601 52.1762L17.39 52.7871C17.206 52.8037 17.0199 52.7893 16.8424 52.7446C16.665 52.6999 16.4998 52.6258 16.3564 52.5267C16.2129 52.4276 16.094 52.3054 16.0066 52.1671C15.9192 52.0289 15.8649 51.8773 15.847 51.7212C15.8291 51.5651 15.8479 51.4075 15.9022 51.2576C15.9566 51.1077 16.0455 50.9684 16.1637 50.8477C16.2819 50.727 16.4272 50.6274 16.5912 50.5546C16.7551 50.4818 16.9344 50.4372 17.1188 50.4234L21.9448 50.0632L22.7795 43.9445C22.7249 43.9036 22.6737 43.8594 22.6265 43.8124C22.3648 43.55 22.2275 43.2145 22.2414 42.8711C22.2552 42.5277 22.4191 42.201 22.7013 41.9543C22.9835 41.7076 23.3639 41.5586 23.7685 41.5362C24.1731 41.5137 24.573 41.6195 24.8907 41.833H24.8907Z" fill="#A0616A"/>
<path d="M21.9421 86.9973H23.7637L24.6302 81.0438H21.9418L21.9421 86.9973Z" fill="#A0616A"/>
<path d="M21.4775 86.4934L25.0647 86.4933H25.0649C25.3651 86.4933 25.6624 86.5434 25.9397 86.6407C26.2171 86.7381 26.4691 86.8808 26.6814 87.0606C26.8937 87.2405 27.0621 87.4541 27.1769 87.6891C27.2918 87.9241 27.351 88.176 27.351 88.4304V88.4934L21.4776 88.4935L21.4775 86.4934Z" fill="#2F2E41"/>
<path d="M3.83728 84.8631L5.40237 85.6528L9.74156 80.9131L7.43157 79.7477L3.83728 84.8631Z" fill="#A0616A"/>
<path d="M3.74232 84.229L6.82457 85.7841L6.82469 85.7841C7.08264 85.9143 7.30781 86.0862 7.48735 86.2901C7.66689 86.494 7.79727 86.7258 7.87106 86.9724C7.94485 87.219 7.9606 87.4755 7.91741 87.7272C7.87422 87.9789 7.77293 88.221 7.61934 88.4396L7.58133 88.4937L2.53479 85.9476L3.74232 84.229Z" fill="#2F2E41"/>
<path d="M24.1935 84.8947H22.1538C21.9886 84.8949 21.8292 84.8432 21.7064 84.7496C21.5836 84.656 21.5062 84.5272 21.489 84.388L19.4327 68.0089C19.4275 67.9677 19.4064 67.9291 19.3727 67.899C19.3391 67.8689 19.2947 67.849 19.2463 67.8425C19.198 67.8359 19.1485 67.843 19.1054 67.8626C19.0623 67.8823 19.0281 67.9134 19.0079 67.9511L15.2983 74.9116L8.73056 83.9865C8.64556 84.1028 8.51394 84.1893 8.35983 84.2301C8.20571 84.2709 8.03939 84.2633 7.89133 84.2087L5.26759 83.2306C5.18083 83.1982 5.10319 83.1506 5.03981 83.0909C4.97642 83.0311 4.92874 82.9607 4.89993 82.8842C4.87112 82.8076 4.86183 82.7268 4.87269 82.647C4.88354 82.5672 4.91429 82.4903 4.96289 82.4213L11.0004 73.855L12.8521 66.6374C12.2697 63.5074 14.7663 58.854 14.7916 58.8072L14.804 58.7845L21.681 56.5068L21.7155 56.5426C24.4276 64.0843 26.0802 72.2004 24.86 84.3756C24.8449 84.5168 24.7683 84.6483 24.6451 84.7442C24.5219 84.8402 24.3609 84.8938 24.1935 84.8947Z" fill="#626087"/>
<path d="M14.5269 59.5471L14.4949 59.49C14.4796 59.4627 12.9504 56.7298 11.7716 53.8089C11.5451 53.2441 11.4595 52.6456 11.5201 52.0512C11.5808 51.4569 11.7865 50.8797 12.1242 50.3562C12.4662 49.8273 12.9342 49.3644 13.4984 48.9967C14.0626 48.6291 14.7108 48.3648 15.4019 48.2205C16.6016 47.9768 17.8647 48.1064 18.9611 48.5858C20.0574 49.0651 20.9141 49.8623 21.3749 50.832C22.31 52.8133 22.012 54.9281 21.7315 56.5912L21.7259 56.6246L21.6902 56.6391L14.5269 59.5471Z" fill="#6C63FF"/>
<path d="M20.3565 42.2148H14.562V40.0745C15.8338 39.6463 17.0784 39.2822 17.8307 40.0745C18.5006 40.0745 19.143 40.3 19.6167 40.7014C20.0904 41.1027 20.3565 41.6471 20.3565 42.2148V42.2148Z" fill="#201F24"/>
<path d="M14.2411 39.6967C10.7771 39.6967 9.8075 43.376 9.8075 45.4517C9.8075 46.6093 10.4253 47.0233 11.3961 47.1634L11.739 45.6139L12.542 47.2301C12.8147 47.2312 13.1012 47.2267 13.3982 47.2221L13.6705 46.747L14.2776 47.2136C16.7094 47.2166 18.6747 47.517 18.6747 45.4517C18.6747 43.376 17.8244 39.6967 14.2411 39.6967Z" fill="#201F24"/>
<path d="M30.3947 88.6386H0.157485C0.115718 88.6386 0.0756605 88.6245 0.0461263 88.5995C0.016592 88.5745 0 88.5405 0 88.5051C0 88.4698 0.016592 88.4358 0.0461263 88.4108C0.0756605 88.3858 0.115718 88.3717 0.157485 88.3717H30.3947C30.4364 88.3717 30.4765 88.3858 30.506 88.4108C30.5356 88.4358 30.5522 88.4698 30.5522 88.5051C30.5522 88.5405 30.5356 88.5745 30.506 88.5995C30.4765 88.6245 30.4364 88.6386 30.3947 88.6386Z" fill="#CCCCCC"/>
<path d="M30.9633 44.7341H24.1914C23.7948 44.7337 23.4145 44.6 23.134 44.3624C22.8535 44.1247 22.6958 43.8025 22.6953 43.4663V37.7281C22.6958 37.392 22.8535 37.0697 23.134 36.8321C23.4145 36.5944 23.7948 36.4607 24.1914 36.4603H30.9633C31.36 36.4607 31.7402 36.5944 32.0207 36.8321C32.3012 37.0697 32.459 37.392 32.4594 37.7281V43.4663C32.459 43.8025 32.3012 44.1247 32.0207 44.3624C31.7402 44.6 31.36 44.7337 30.9633 44.7341Z" fill="white"/>
<path d="M30.9633 44.7341H24.1914C23.7948 44.7337 23.4145 44.6 23.134 44.3624C22.8535 44.1247 22.6958 43.8025 22.6953 43.4663V37.7281C22.6958 37.392 22.8535 37.0697 23.134 36.8321C23.4145 36.5944 23.7948 36.4607 24.1914 36.4603H30.9633C31.36 36.4607 31.7402 36.5944 32.0207 36.8321C32.3012 37.0697 32.459 37.392 32.4594 37.7281V43.4663C32.459 43.8025 32.3012 44.1247 32.0207 44.3624C31.7402 44.6 31.36 44.7337 30.9633 44.7341ZM24.1914 36.7272C23.8783 36.7275 23.578 36.8331 23.3566 37.0207C23.1352 37.2083 23.0106 37.4627 23.0103 37.7281V43.4663C23.0106 43.7317 23.1352 43.9861 23.3566 44.1737C23.578 44.3614 23.8783 44.4669 24.1914 44.4672H30.9633C31.2764 44.4669 31.5767 44.3614 31.7981 44.1737C32.0195 43.9861 32.1441 43.7317 32.1444 43.4663V37.7281C32.1441 37.4627 32.0195 37.2083 31.7981 37.0207C31.5767 36.8331 31.2764 36.7275 30.9633 36.7272H24.1914Z" fill="#3F3D56"/>
<path d="M29.7821 42.3989H25.3725C25.2472 42.3988 25.1271 42.3565 25.0386 42.2815C24.95 42.2064 24.9002 42.1047 24.9 41.9985V39.1961C24.9002 39.09 24.95 38.9882 25.0386 38.9132C25.1271 38.8381 25.2472 38.7959 25.3725 38.7958H26.6138C26.6946 38.7955 26.774 38.8129 26.8445 38.8463C26.915 38.8797 26.9741 38.9279 27.0162 38.9862L27.3624 39.463H29.7821C29.9073 39.4631 30.0274 39.5054 30.116 39.5804C30.2046 39.6555 30.2544 39.7572 30.2545 39.8634V41.9985C30.2544 42.1047 30.2046 42.2064 30.116 42.2815C30.0274 42.3565 29.9073 42.3988 29.7821 42.3989Z" fill="#6C63FF"/>
<path d="M29.6387 43.8146C29.6607 43.8487 29.6811 43.8839 29.6997 43.92C29.793 44.0985 29.8406 44.2916 29.8396 44.4868C29.8386 44.6819 29.789 44.8747 29.6939 45.0525C29.5989 45.2302 29.4606 45.3889 29.2881 45.5183C29.1156 45.6476 28.9128 45.7445 28.693 45.8028C28.6418 45.8162 28.5899 45.8273 28.5374 45.8361L25.5295 52.4291C25.4301 52.6446 25.2513 52.8271 25.0197 52.9497C24.7881 53.0723 24.516 53.1283 24.2439 53.1095L24.2288 53.1071L17.7094 51.444C17.5322 51.3988 17.3672 51.3243 17.2242 51.2248C17.0811 51.1252 16.9627 51.0027 16.8759 50.8641C16.789 50.7256 16.7354 50.5739 16.7181 50.4177C16.7009 50.2615 16.7203 50.104 16.7753 49.9542C16.8303 49.8045 16.9197 49.6654 17.0385 49.5451C17.1573 49.4248 17.303 49.3256 17.4672 49.2533C17.6315 49.1809 17.811 49.1369 17.9955 49.1237C18.1799 49.1105 18.3656 49.1284 18.5419 49.1763L23.1547 50.4313L26.7259 45.0664C26.6943 45.0107 26.6674 44.9532 26.6454 44.8943C26.5244 44.5664 26.5516 44.2121 26.7216 43.9002C26.8916 43.5883 27.1923 43.3411 27.5653 43.2065C27.9384 43.0719 28.3571 43.0596 28.7403 43.172C29.1234 43.2844 29.4436 43.5134 29.6387 43.8146H29.6387Z" fill="#A0616A"/>
</g>
<defs>
<clipPath id="clip0_42_1443">
<rect width="138" height="88.2723" fill="white" transform="translate(0 0.366333)"/>
</clipPath>
</defs>
</svg>
