<svg width="140" height="89" viewBox="0 0 140 89" fill="none" xmlns="http://www.w3.org/2000/svg">
<g clip-path="url(#clip0_42_1504)">
<path d="M23.4214 58.1407C23.4214 58.1407 25.1248 60.7455 24.5164 61.4508C23.9081 62.156 29.0806 62.1736 29.0806 62.1736C29.0806 62.1736 28.3036 58.3845 28.5323 57.5125L23.4214 58.1407Z" fill="#FFB8B8"/>
<path d="M26.1436 59.0848C29.0936 59.0848 31.485 56.7792 31.485 53.935C31.485 51.0908 29.0936 48.7852 26.1436 48.7852C23.1937 48.7852 20.8022 51.0908 20.8022 53.935C20.8022 56.7792 23.1937 59.0848 26.1436 59.0848Z" fill="#272B2D"/>
<path d="M38.7065 81.8484V84.9014L41.873 84.2653L41.6092 82.1028L38.7065 81.8484Z" fill="#FFB8B8"/>
<path d="M49.9211 82.3573L58.7609 83.7566L56.5179 86.9367C56.5179 86.9367 50.3169 84.9014 48.7337 84.9014C47.1505 84.9014 49.9211 82.3573 49.9211 82.3573Z" fill="#FFB8B8"/>
<path d="M29.8668 76.2514C29.8668 76.2514 36.4636 68.8735 38.5746 69.2552C40.6856 69.6368 41.6091 71.9264 41.6091 71.9264L42.7966 83.2477C42.7966 83.2477 38.5746 83.6293 38.5746 83.2477C38.5746 82.8661 37.783 74.725 37.783 74.725C37.783 74.725 31.582 87.9543 28.2836 79.1771L29.8668 76.2514Z" fill="#D0CDE1"/>
<path d="M19.18 81.2124C19.18 81.2124 19.3119 87.8767 23.27 88.2583C27.2281 88.6399 31.582 85.4102 31.582 85.4102L38.7065 82.1194C38.7065 82.1194 47.1505 86.4278 49.6572 85.283C49.6572 85.283 52.296 82.6117 50.5808 81.8484C48.8656 81.0852 50.4489 81.8484 50.4489 81.8484L40.2898 76.7602C40.2898 76.7602 38.3107 76.2514 34.8804 77.6507C31.4501 79.0499 26.8323 79.686 26.8323 79.686L19.18 81.2124Z" fill="#D0CDE1"/>
<path d="M25.7768 59.4603C27.9628 59.4603 29.7349 57.7518 29.7349 55.6442C29.7349 53.5366 27.9628 51.828 25.7768 51.828C23.5908 51.828 21.8187 53.5366 21.8187 55.6442C21.8187 57.7518 23.5908 59.4603 25.7768 59.4603Z" fill="#FFB8B8"/>
<path d="M31.45 66.3293L31.1862 71.672C31.1862 71.672 31.3181 78.6682 30.1307 79.177C29.5304 79.434 28.3245 79.9504 27.2096 80.5152C26.3731 80.9375 25.5881 81.3853 25.1501 81.7707C25.034 81.866 24.9338 81.978 24.8532 82.1028C24.3255 82.9932 20.8951 82.866 20.1035 82.23C19.3119 81.5939 19.8397 82.9932 19.18 83.2476C18.5414 83.4944 17.6561 81.4769 18.1984 78.4647C18.2155 78.3642 18.2353 78.2624 18.2564 78.1594C18.862 75.24 17.9107 68.2476 18.0572 65.5458C18.0657 65.3393 18.0882 65.1337 18.1245 64.9301C18.5203 62.8948 23.5708 58.753 24.5155 60.5174C25.6791 62.6951 28.3522 60.7056 28.8113 59.7147C31.45 59.5875 32.3736 62.6404 32.3736 62.6404L31.45 66.3293Z" fill="#6C63FF"/>
<path d="M42.1368 83.7565C42.1368 83.7565 40.0259 84.5197 39.3662 84.3925C38.7065 84.2653 38.0468 84.7741 38.0468 85.5373C38.0468 86.3006 37.2552 88.0814 38.4426 88.2086C39.6301 88.3358 44.5117 88.0814 45.5672 88.463C45.5672 88.463 50.3169 88.5903 49.9211 86.6822C49.5253 84.7741 47.5462 84.9013 47.5462 84.9013C47.5462 84.9013 42.1368 84.6469 42.1368 83.7565Z" fill="#2F2E41"/>
<path d="M57.5734 84.1381C57.5734 84.1381 57.8373 83.3749 58.2331 83.3749C58.6289 83.3749 61.7953 83.8837 62.1912 83.7565C62.587 83.6293 67.2047 83.3749 66.4131 85.5374C65.6215 87.6999 62.9828 87.9543 62.9828 87.9543C62.9828 87.9543 58.2331 87.4454 57.5734 87.5726C56.9137 87.6998 54.5388 87.5726 54.9346 86.9366C55.3305 86.3006 57.8373 85.1557 57.5734 84.1381Z" fill="#2F2E41"/>
<path d="M45.5638 65.8668L46.2876 68.7455C46.2957 68.7776 46.2944 68.8112 46.284 68.8427L43.0006 78.7354C42.9876 78.7746 42.961 78.8083 42.9254 78.8309C42.8897 78.8535 42.8471 78.8636 42.8047 78.8596C42.7622 78.8555 42.7225 78.8376 42.6921 78.8087C42.6617 78.7799 42.6425 78.7418 42.6377 78.7009L42.1834 74.8471C42.1804 74.8215 42.1831 74.7956 42.1914 74.7711L45.2052 65.8535C45.2178 65.8163 45.2426 65.784 45.2759 65.7617C45.3092 65.7393 45.3492 65.728 45.3897 65.7295C45.4303 65.731 45.4692 65.7452 45.5007 65.77C45.5321 65.7948 45.5542 65.8288 45.5638 65.8668Z" fill="#3F3D56"/>
<path d="M45.2976 66.1099L45.9659 68.5798L43.0699 77.6003L42.4016 74.8083L45.2976 66.1099Z" fill="white"/>
<path d="M30.7065 79.5333C30.8179 79.8555 42.2902 79.4259 42.4016 79.3185C42.4987 79.1841 42.5808 79.0401 42.6466 78.889C42.7513 78.6742 42.8471 78.4594 42.8471 78.4594L42.4016 74.9823L31.0407 74.5935C31.0407 74.5935 30.7567 77.5402 30.6987 78.889C30.679 79.1035 30.6816 79.3193 30.7065 79.5333Z" fill="#3F3D56"/>
<path opacity="0.1" d="M40.9536 75.4525L41.1764 78.4595H36.1643V75.4525H40.9536Z" fill="black"/>
<path opacity="0.1" d="M34.4936 76.4191L34.5236 76.4133L34.3821 77.7076H31.5976V76.4191H34.4936Z" fill="black"/>
<path opacity="0.1" d="M30.7066 79.5332C30.818 79.8554 42.2902 79.4259 42.4016 79.3185C42.4987 79.184 42.5809 79.04 42.6467 78.8889H30.6988C30.6791 79.1034 30.6817 79.3193 30.7066 79.5332Z" fill="black"/>
<path d="M27.0286 49.7404C27.8507 49.7404 28.5172 49.0978 28.5172 48.3052C28.5172 47.5126 27.8507 46.87 27.0286 46.87C26.2065 46.87 25.54 47.5126 25.54 48.3052C25.54 49.0978 26.2065 49.7404 27.0286 49.7404Z" fill="#272B2D"/>
<path d="M26.581 49.8674C26.581 49.8674 25.0601 52.3064 21.5236 53.2195C17.9871 54.1325 21.4947 59.2563 21.4947 59.2563C21.4947 59.2563 20.2192 57.3931 22.0589 55.4199C23.8987 53.4467 26.8593 52.0977 26.581 49.8674Z" fill="#272B2D"/>
<path opacity="0.1" d="M27.2096 80.5153C26.8837 81.1093 26.5011 81.7263 26.4365 81.9756C26.3929 82.1448 25.91 82.0468 25.1501 81.7708C23.6262 81.2149 20.9848 79.9416 18.5203 78.6683C18.4067 78.6102 18.2989 78.542 18.1984 78.4647C18.2155 78.3643 18.2353 78.2625 18.2564 78.1595C18.862 75.2401 17.9107 68.2477 18.0572 65.5458L19.18 65.1846L21.4229 67.2198V75.8698C21.4229 75.8698 27.2281 78.9227 27.6239 79.1771C27.8257 79.3068 27.5473 79.8983 27.2096 80.5153Z" fill="black"/>
<path d="M32.1097 73.58L35.672 75.3609C35.672 75.3609 37.7829 73.1984 39.1023 74.8521C40.4217 76.5057 35.2762 77.0145 35.2762 77.0145C35.2762 77.0145 30.7903 75.9969 30.6584 74.5976C30.5264 73.1984 32.1097 73.58 32.1097 73.58Z" fill="#FFB8B8"/>
<path d="M26.1726 78.2866L28.2835 78.7954C28.2835 78.7954 30.6584 75.9969 33.1652 77.0145C35.672 78.0322 29.9987 80.0675 29.9987 80.0675C29.9987 80.0675 26.9642 81.5939 25.7768 80.3219C24.5893 79.0498 26.1726 78.2866 26.1726 78.2866Z" fill="#FFB8B8"/>
<path d="M30.7903 61.4956C30.9223 61.6228 32.3736 62.6405 32.3736 62.6405C32.3736 62.6405 32.7694 67.4742 32.2416 68.4919C31.7139 69.5095 31.3181 69.5095 31.7139 70.0183C32.1097 70.5272 32.6374 70.1455 32.1097 71.036C31.5819 71.9264 31.0542 71.7992 31.45 72.1808C31.8458 72.5624 31.7139 72.6896 31.7139 72.6896L33.2971 73.9617C33.2971 73.9617 32.3258 75.4533 31.0963 75.3435C29.8668 75.2337 28.8113 69.5095 28.8113 69.5095L30.7903 61.4956Z" fill="#6C63FF"/>
<path d="M19.18 64.5486L17.9926 64.9302C17.9926 64.9302 14.8261 76.1242 18.5203 78.0323C22.2145 79.9404 26.3046 81.8485 26.4365 81.3396C26.5684 80.8308 28.0197 78.7955 27.6239 78.5411C27.2281 78.2867 21.4229 75.2338 21.4229 75.2338V66.5839L19.18 64.5486Z" fill="#6C63FF"/>
<path opacity="0.1" d="M20.961 69.1915L20.6973 75.2974L27.6899 78.4776L21.2249 75.2974L20.961 69.1915Z" fill="black"/>
<path d="M122.721 20.6984V30.682C122.72 30.7743 122.682 30.8626 122.615 30.9279C122.547 30.9931 122.455 31.0299 122.36 31.0301H122.103V83.0383C122.103 84.4775 121.51 85.8577 120.454 86.8753C119.399 87.893 117.967 88.4647 116.474 88.4648H82.7687C82.0296 88.4647 81.2979 88.3243 80.6151 88.0516C79.9324 87.7788 79.312 87.3791 78.7895 86.8752C78.267 86.3713 77.8526 85.7731 77.5699 85.1147C77.2872 84.4564 77.1417 83.7508 77.1419 83.0383V32.8541H76.9558C76.8883 32.8542 76.8235 32.8285 76.7757 32.7827C76.7278 32.7368 76.7007 32.6745 76.7004 32.6094V26.9275C76.7004 26.8952 76.707 26.8632 76.7198 26.8333C76.7327 26.8034 76.7515 26.7762 76.7752 26.7534C76.7989 26.7305 76.8271 26.7124 76.8581 26.7C76.8891 26.6876 76.9223 26.6813 76.9558 26.6813H77.1419V24.5411H76.9542C76.8834 24.5408 76.8155 24.5134 76.7656 24.465C76.7156 24.4165 76.6877 24.351 76.6878 24.2826V18.6783C76.688 18.6102 76.7161 18.5449 76.766 18.4968C76.816 18.4487 76.8836 18.4215 76.9542 18.4214H77.1419V15.4999H76.9511C76.92 15.4999 76.8892 15.494 76.8605 15.4826C76.8318 15.4711 76.8057 15.4543 76.7838 15.4332C76.7618 15.412 76.7444 15.3868 76.7325 15.3591C76.7206 15.3315 76.7146 15.3018 76.7146 15.2718V12.2135C76.7145 12.1529 76.7393 12.0946 76.7836 12.0516C76.8279 12.0086 76.8882 11.9843 76.9511 11.984H77.1419V5.79135C77.1419 4.35256 77.7348 2.97272 78.79 1.95534C79.8452 0.937965 81.2764 0.366385 82.7687 0.366333H116.474C117.967 0.366327 119.398 0.937838 120.454 1.95519C121.509 2.97253 122.102 4.35241 122.103 5.79135V20.3503H122.36C122.455 20.3505 122.547 20.3873 122.615 20.4525C122.682 20.5177 122.72 20.6061 122.721 20.6984Z" fill="#3F3D56"/>
<path d="M101.245 3.14905H95.7684C95.547 3.14905 95.3676 3.32203 95.3676 3.53543V3.99184C95.3676 4.20523 95.547 4.37822 95.7684 4.37822H101.245C101.467 4.37822 101.646 4.20523 101.646 3.99184V3.53543C101.646 3.32203 101.467 3.14905 101.245 3.14905Z" fill="#E6E8EC"/>
<path d="M103.319 4.46078C103.718 4.46078 104.042 4.14864 104.042 3.7636C104.042 3.37855 103.718 3.06641 103.319 3.06641C102.919 3.06641 102.595 3.37855 102.595 3.7636C102.595 4.14864 102.919 4.46078 103.319 4.46078Z" fill="#E6E8EC"/>
<path d="M119.407 6.86452V83.4882C119.407 84.4011 119.031 85.2764 118.361 85.9217C117.691 86.567 116.783 86.9296 115.836 86.9296H83.5719C83.1028 86.9304 82.6382 86.8419 82.2047 86.6693C81.7712 86.4966 81.3773 86.2432 81.0456 85.9235C80.7138 85.6038 80.4508 85.2241 80.2715 84.8062C80.0923 84.3883 80.0003 83.9404 80.0009 83.4882V6.86452C80.0009 6.41239 80.0933 5.96468 80.2727 5.54696C80.4522 5.12924 80.7152 4.74969 81.0468 4.42999C81.3784 4.11028 81.772 3.85668 82.2053 3.68367C82.6386 3.51065 83.1029 3.42161 83.5719 3.42163H88.4009V4.01901C88.4009 4.77086 88.7107 5.49192 89.2621 6.02356C89.8135 6.5552 90.5614 6.85388 91.3412 6.85388H107.75C108.53 6.85388 109.278 6.5552 109.829 6.02356C110.381 5.49192 110.691 4.77086 110.691 4.01901V3.42163H115.836C116.305 3.42148 116.77 3.51044 117.203 3.68341C117.637 3.85638 118.03 4.10997 118.362 4.4297C118.693 4.74943 118.957 5.12903 119.136 5.54681C119.315 5.96459 119.408 6.41235 119.407 6.86452Z" fill="white"/>
<path d="M116.166 53.8655H83.3737V57.9696H116.166V53.8655Z" fill="#E6E6E6"/>
<path d="M116.166 61.1617H83.3737V65.2659H116.166V61.1617Z" fill="#E6E6E6"/>
<path d="M116.166 68.4579H83.3737V72.562H116.166V68.4579Z" fill="#E6E6E6"/>
<path d="M112.54 17.2325C114.282 17.2325 115.694 15.8714 115.694 14.1924C115.694 12.5134 114.282 11.1523 112.54 11.1523C110.799 11.1523 109.387 12.5134 109.387 14.1924C109.387 15.8714 110.799 17.2325 112.54 17.2325Z" fill="#6C63FF"/>
<path d="M116.101 24.3767H83.3079V45.3533H116.101V24.3767Z" fill="#E6E6E6"/>
<path d="M96.366 36.1708C97.3235 39.5833 100.603 41.6967 100.603 41.6967C100.603 41.6967 102.33 38.2774 101.373 34.8649C100.415 31.4524 97.1357 29.339 97.1357 29.339C97.1357 29.339 95.4085 32.7583 96.366 36.1708Z" fill="#3F3D56"/>
<path d="M97.7728 35.4374C100.4 37.9033 100.721 41.694 100.721 41.694C100.721 41.694 96.7823 41.4866 94.1549 39.0207C91.5276 36.5548 91.2067 32.7642 91.2067 32.7642C91.2067 32.7642 95.1455 32.9715 97.7728 35.4374Z" fill="#6C63FF"/>
<path d="M105.076 36.1708C104.119 39.5833 100.839 41.6967 100.839 41.6967C100.839 41.6967 99.1121 38.2774 100.07 34.8649C101.027 31.4524 104.307 29.339 104.307 29.339C104.307 29.339 106.034 32.7583 105.076 36.1708Z" fill="#3F3D56"/>
<path d="M103.669 35.4374C101.042 37.9033 100.721 41.694 100.721 41.694C100.721 41.694 104.66 41.4866 107.287 39.0207C109.915 36.5548 110.236 32.7642 110.236 32.7642C110.236 32.7642 106.297 32.9715 103.669 35.4374Z" fill="#FF6363"/>
<path d="M140 88.298H0V88.6386H140V88.298Z" fill="#3F3D56"/>
</g>
<defs>
<clipPath id="clip0_42_1504">
<rect width="140" height="88.2723" fill="white" transform="translate(0 0.366333)"/>
</clipPath>
</defs>
</svg>
