<svg width="232" height="119" viewBox="0 0 232 119" fill="none" xmlns="http://www.w3.org/2000/svg">
<g clip-path="url(#clip0_42_1352)">
<path d="M202.893 104.207C196.836 104.156 190.789 103.729 184.789 102.929C184.578 102.901 184.367 102.87 184.157 102.842L184.474 48.2475C184.683 48.0872 184.895 47.9295 185.109 47.7766C185.818 47.2669 186.547 46.7892 187.302 46.3506C190.937 44.2428 195.193 43.2778 198.129 44.2448L198.175 44.2622C198.818 44.4709 199.412 44.7998 199.922 45.2301C202.501 47.4348 202.071 51.8926 199.99 55.938C204.116 52.3095 209.323 49.4204 213.971 49.2009C218.505 48.9856 221.743 51.2672 224.495 53.7419C224.586 53.8231 224.675 53.9043 224.763 53.9855C224.809 54.0249 224.852 54.0667 224.897 54.106C226.995 56.0367 229.062 58.2877 228.812 61.5458C228.537 65.1192 225.428 69.0809 221.804 71.8587C218.183 74.6365 214.069 76.4824 210.055 78.3535C206.042 80.2269 201.928 82.2539 198.498 85.2602C203.849 81.1884 209.938 77.9054 215.859 76.6926C221.78 75.4799 227.468 76.5472 230.256 80.1762C231.077 81.2779 231.611 82.5527 231.815 83.894C231.842 84.0506 231.864 84.2096 231.883 84.3711C232.28 87.7305 231.073 91.7415 228.188 95.1542C225.011 98.9125 220.301 101.518 215.829 102.815C211.358 104.111 207.054 104.249 202.893 104.207Z" fill="#F2F2F2"/>
<path d="M184.356 68.4883L184.362 67.4443C184.577 67.1129 184.79 66.7798 185 66.4452C185.136 66.2381 185.267 66.0285 185.4 65.8189C187.598 62.3561 189.705 58.8716 191.723 55.3655C193.743 51.8626 195.67 48.342 197.503 44.8039C197.546 44.7101 197.621 44.6336 197.716 44.5876C197.811 44.5417 197.92 44.5292 198.023 44.5524C198.037 44.5562 198.05 44.562 198.061 44.5698C198.157 44.6191 198.197 44.7294 198.115 44.8904C197.889 45.3244 197.663 45.7609 197.432 46.1948C195.567 49.7426 193.609 53.2752 191.558 56.7926C189.507 60.3075 187.367 63.8024 185.135 67.2773C185.089 67.3503 185.04 67.4235 184.994 67.4966C184.782 67.8279 184.569 68.1569 184.356 68.4883Z" fill="white"/>
<path d="M184.278 81.9488L184.282 81.3032C184.493 81.1576 184.705 81.0145 184.917 80.8689C189.901 77.4481 194.885 74.028 199.869 70.6086C208.028 65.0089 216.188 59.4109 224.348 53.8146C224.392 53.7814 224.442 53.7568 224.495 53.742C224.676 53.6941 224.782 53.8218 224.763 53.9856C224.753 54.0546 224.728 54.1207 224.689 54.1795C224.65 54.2383 224.598 54.2885 224.538 54.3267C219.962 57.4661 215.388 60.6048 210.815 63.7427C202.696 69.3132 194.578 74.8829 186.461 80.4518C185.946 80.8061 185.428 81.1603 184.913 81.5145C184.701 81.6601 184.49 81.8057 184.278 81.9488Z" fill="white"/>
<path d="M188.173 96.3304C187.042 96.2974 185.93 96.2254 184.828 96.1314C184.617 96.1132 184.407 96.095 184.196 96.0767L184.2 95.3994C184.41 95.4201 184.621 95.4408 184.832 95.459C186.424 95.6021 188.034 95.7037 189.688 95.7174C194.273 95.7355 198.848 95.3054 203.343 94.4338C208.183 93.5074 212.93 92.1772 217.53 90.4584C222.381 88.6543 227.075 86.4792 231.566 83.9539C231.639 83.9063 231.727 83.8851 231.815 83.8941C232.015 83.922 232.075 84.1791 231.883 84.3712C231.846 84.4092 231.803 84.4418 231.756 84.4683C231.197 84.7807 230.638 85.0875 230.076 85.3885C225.56 87.8207 220.85 89.9025 215.991 91.6141C211.376 93.2444 206.622 94.4845 201.783 95.3203C197.294 96.1032 192.733 96.4417 188.173 96.3304Z" fill="white"/>
<path d="M182.585 0.803955H28.3781C27.7907 0.804469 27.2276 1.02928 26.8122 1.42903C26.3969 1.82878 26.1634 2.37081 26.1628 2.93614V103.511C26.1634 104.076 26.3969 104.618 26.8122 105.018C27.2276 105.417 27.7907 105.642 28.3781 105.643H182.585C182.905 105.643 183.222 105.576 183.513 105.447C183.803 105.317 184.062 105.129 184.269 104.895C184.287 104.876 184.303 104.856 184.318 104.836C184.45 104.68 184.557 104.506 184.635 104.32C184.747 104.064 184.804 103.788 184.803 103.511V2.93615C184.802 2.37043 184.568 1.82808 184.152 1.42828C183.737 1.02848 183.173 0.803926 182.585 0.803955ZM184.17 103.511C184.171 103.808 184.08 104.099 183.909 104.347C183.757 104.565 183.551 104.743 183.309 104.865C183.085 104.976 182.837 105.034 182.585 105.034H28.3781C27.9585 105.033 27.5562 104.873 27.2595 104.587C26.9628 104.302 26.7959 103.914 26.7954 103.511V2.93615C26.7959 2.53229 26.9628 2.1451 27.2595 1.85952C27.5562 1.57395 27.9585 1.4133 28.3781 1.41281H182.585C183.005 1.41275 183.408 1.57315 183.705 1.85877C184.002 2.1444 184.17 2.53189 184.17 2.93615V103.511Z" fill="#C4C4C4"/>
<path d="M184.485 9.34961H26.4785V9.95914H184.485V9.34961Z" fill="#C4C4C4"/>
<path d="M31.8615 7.20407C32.9108 7.20407 33.7614 6.38538 33.7614 5.37547C33.7614 4.36557 32.9108 3.54688 31.8615 3.54688C30.8122 3.54688 29.9616 4.36557 29.9616 5.37547C29.9616 6.38538 30.8122 7.20407 31.8615 7.20407Z" fill="#C4C4C4"/>
<path d="M37.3237 7.20407C38.373 7.20407 39.2236 6.38538 39.2236 5.37547C39.2236 4.36557 38.373 3.54688 37.3237 3.54688C36.2744 3.54688 35.4238 4.36557 35.4238 5.37547C35.4238 6.38538 36.2744 7.20407 37.3237 7.20407Z" fill="#C4C4C4"/>
<path d="M42.7857 7.20407C43.835 7.20407 44.6856 6.38538 44.6856 5.37547C44.6856 4.36557 43.835 3.54688 42.7857 3.54688C41.7365 3.54688 40.8859 4.36557 40.8859 5.37547C40.8859 6.38538 41.7365 7.20407 42.7857 7.20407Z" fill="#C4C4C4"/>
<path d="M145.138 23.4589H65.8754C64.9995 23.4589 64.1594 23.124 63.5401 22.5278C62.9207 21.9317 62.5728 21.1232 62.5728 20.2802C62.5728 19.4371 62.9207 18.6286 63.5401 18.0325C64.1594 17.4363 64.9995 17.1014 65.8754 17.1014H145.138C146.014 17.1014 146.854 17.4363 147.474 18.0325C148.093 18.6286 148.441 19.4371 148.441 20.2802C148.441 21.1232 148.093 21.9317 147.474 22.5278C146.854 23.124 146.014 23.4589 145.138 23.4589ZM65.8754 17.5905C65.1342 17.5905 64.4234 17.8739 63.8993 18.3783C63.3753 18.8827 63.0808 19.5668 63.0808 20.2802C63.0808 20.9935 63.3753 21.6776 63.8993 22.182C64.4234 22.6865 65.1342 22.9698 65.8754 22.9698H145.138C145.879 22.9698 146.59 22.6865 147.114 22.182C147.638 21.6776 147.933 20.9935 147.933 20.2802C147.933 19.5668 147.638 18.8827 147.114 18.3783C146.59 17.8739 145.879 17.5905 145.138 17.5905H65.8754Z" fill="#C4C4C4"/>
<path d="M66.5375 42.8979H59.4242C58.8851 42.8979 58.3682 42.6918 57.9871 42.3249C57.6059 41.9581 57.3918 41.4605 57.3918 40.9417C57.3918 40.4229 57.6059 39.9254 57.9871 39.5585C58.3682 39.1917 58.8851 38.9856 59.4242 38.9856H66.5375C67.0765 38.9856 67.5935 39.1917 67.9746 39.5585C68.3558 39.9254 68.5699 40.4229 68.5699 40.9417C68.5699 41.4605 68.3558 41.9581 67.9746 42.3249C67.5935 42.6918 67.0765 42.8979 66.5375 42.8979Z" fill="#CCCCCC"/>
<path d="M74.9211 49.4998H59.4242C58.8851 49.4998 58.3682 49.2937 57.9871 48.9268C57.6059 48.56 57.3918 48.0625 57.3918 47.5437C57.3918 47.0249 57.6059 46.5273 57.9871 46.1605C58.3682 45.7936 58.8851 45.5875 59.4242 45.5875H74.9211C75.4601 45.5875 75.977 45.7936 76.3582 46.1605C76.7393 46.5273 76.9535 47.0249 76.9535 47.5437C76.9535 48.0625 76.7393 48.56 76.3582 48.9268C75.977 49.2937 75.4601 49.4998 74.9211 49.4998Z" fill="#CCCCCC"/>
<path d="M67.8078 71.7507H60.6944C60.1554 71.7507 59.6385 71.5447 59.2573 71.1778C58.8762 70.811 58.662 70.3134 58.662 69.7946C58.662 69.2758 58.8762 68.7783 59.2573 68.4114C59.6385 68.0446 60.1554 67.8385 60.6944 67.8385H67.8078C68.3468 67.8385 68.8637 68.0446 69.2449 68.4114C69.626 68.7783 69.8402 69.2758 69.8402 69.7946C69.8402 70.3134 69.626 70.811 69.2449 71.1778C68.8637 71.5447 68.3468 71.7507 67.8078 71.7507Z" fill="#CCCCCC"/>
<path d="M76.1913 78.3527H60.6944C60.1554 78.3527 59.6385 78.1466 59.2573 77.7798C58.8762 77.4129 58.662 76.9154 58.662 76.3966C58.662 75.8778 58.8762 75.3802 59.2573 75.0134C59.6385 74.6465 60.1554 74.4404 60.6944 74.4404H76.1913C76.7304 74.4404 77.2473 74.6465 77.6285 75.0134C78.0096 75.3802 78.2237 75.8778 78.2237 76.3966C78.2237 76.9154 78.0096 77.4129 77.6285 77.7798C77.2473 78.1466 76.7304 78.3527 76.1913 78.3527Z" fill="#CCCCCC"/>
<path d="M114.553 71.0172H107.439C106.9 71.0172 106.383 70.8111 106.002 70.4443C105.621 70.0774 105.407 69.5799 105.407 69.0611C105.407 68.5423 105.621 68.0448 106.002 67.6779C106.383 67.3111 106.9 67.105 107.439 67.105H114.553C115.092 67.105 115.609 67.3111 115.99 67.6779C116.371 68.0448 116.585 68.5423 116.585 69.0611C116.585 69.5799 116.371 70.0774 115.99 70.4443C115.609 70.8111 115.092 71.0172 114.553 71.0172Z" fill="#CCCCCC"/>
<path d="M122.936 77.6192H107.439C106.9 77.6192 106.383 77.4131 106.002 77.0462C105.621 76.6794 105.407 76.1818 105.407 75.663C105.407 75.1442 105.621 74.6467 106.002 74.2799C106.383 73.913 106.9 73.7069 107.439 73.7069H122.936C123.475 73.7069 123.992 73.913 124.373 74.2799C124.754 74.6467 124.969 75.1442 124.969 75.663C124.969 76.1818 124.754 76.6794 124.373 77.0462C123.992 77.4131 123.475 77.6192 122.936 77.6192Z" fill="#CCCCCC"/>
<path d="M113.79 44.1205H106.677C106.138 44.1205 105.621 43.9144 105.24 43.5476C104.859 43.1807 104.645 42.6832 104.645 42.1644C104.645 41.6456 104.859 41.148 105.24 40.7812C105.621 40.4143 106.138 40.2083 106.677 40.2083H113.79C114.329 40.2083 114.846 40.4143 115.227 40.7812C115.609 41.148 115.823 41.6456 115.823 42.1644C115.823 42.6832 115.609 43.1807 115.227 43.5476C114.846 43.9144 114.329 44.1205 113.79 44.1205Z" fill="#CCCCCC"/>
<path d="M122.174 50.7224H106.677C106.138 50.7224 105.621 50.5164 105.24 50.1495C104.859 49.7827 104.645 49.2851 104.645 48.7663C104.645 48.2475 104.859 47.75 105.24 47.3831C105.621 47.0163 106.138 46.8102 106.677 46.8102H122.174C122.713 46.8102 123.23 47.0163 123.611 47.3831C123.992 47.75 124.206 48.2475 124.206 48.7663C124.206 49.2851 123.992 49.7827 123.611 50.1495C123.23 50.5164 122.713 50.7224 122.174 50.7224Z" fill="#CCCCCC"/>
<path d="M161.297 42.6533H154.184C153.645 42.6533 153.128 42.4473 152.747 42.0804C152.366 41.7136 152.152 41.216 152.152 40.6972C152.152 40.1784 152.366 39.6809 152.747 39.314C153.128 38.9472 153.645 38.7411 154.184 38.7411H161.297C161.836 38.7411 162.353 38.9472 162.734 39.314C163.116 39.6809 163.33 40.1784 163.33 40.6972C163.33 41.216 163.116 41.7136 162.734 42.0804C162.353 42.4473 161.836 42.6533 161.297 42.6533Z" fill="#CCCCCC"/>
<path d="M169.681 49.2553H154.184C153.645 49.2553 153.128 49.0492 152.747 48.6823C152.366 48.3155 152.152 47.8179 152.152 47.2991C152.152 46.7803 152.366 46.2828 152.747 45.916C153.128 45.5491 153.645 45.343 154.184 45.343H169.681C170.22 45.343 170.737 45.5491 171.118 45.916C171.499 46.2828 171.713 46.7803 171.713 47.2991C171.713 47.8179 171.499 48.3155 171.118 48.6823C170.737 49.0492 170.22 49.2553 169.681 49.2553Z" fill="#CCCCCC"/>
<path d="M46.8738 51.5782C51.083 51.5782 54.4952 48.294 54.4952 44.2427C54.4952 40.1914 51.083 36.9072 46.8738 36.9072C42.6646 36.9072 39.2524 40.1914 39.2524 44.2427C39.2524 48.294 42.6646 51.5782 46.8738 51.5782Z" fill="#6C63FF"/>
<path d="M50.4305 47.5437H43.3171C43.1151 47.5435 42.9213 47.4662 42.7785 47.3286C42.6356 47.1911 42.5552 47.0047 42.555 46.8102V41.6753C42.5552 41.4808 42.6356 41.2944 42.7785 41.1569C42.9213 41.0193 43.1151 40.942 43.3171 40.9418H45.3196C45.4499 40.9413 45.578 40.9732 45.6917 41.0343C45.8055 41.0955 45.9009 41.1838 45.9688 41.2908L46.5272 42.1644H50.4305C50.6325 42.1646 50.8263 42.2419 50.9691 42.3794C51.112 42.517 51.1924 42.7034 51.1926 42.8979V46.8102C51.1924 47.0047 51.112 47.1911 50.9691 47.3286C50.8263 47.4662 50.6325 47.5435 50.4305 47.5437ZM43.3171 41.4308C43.2498 41.4309 43.1852 41.4567 43.1376 41.5025C43.09 41.5484 43.0632 41.6105 43.0631 41.6753V46.8102C43.0632 46.875 43.09 46.9371 43.1376 46.983C43.1852 47.0288 43.2498 47.0546 43.3171 47.0547H50.4305C50.4978 47.0546 50.5624 47.0288 50.61 46.983C50.6576 46.9371 50.6844 46.875 50.6845 46.8102V42.8979C50.6844 42.8331 50.6576 42.7709 50.61 42.7251C50.5624 42.6793 50.4978 42.6535 50.4305 42.6534H46.2434L45.5361 41.5471C45.5134 41.5114 45.4816 41.482 45.4437 41.4616C45.4058 41.4413 45.3631 41.4306 45.3196 41.4308H43.3171Z" fill="white"/>
<path d="M93.6186 52.8007C97.8278 52.8007 101.24 49.5165 101.24 45.4653C101.24 41.414 97.8278 38.1298 93.6186 38.1298C89.4094 38.1298 85.9972 41.414 85.9972 45.4653C85.9972 49.5165 89.4094 52.8007 93.6186 52.8007Z" fill="#6C63FF"/>
<path d="M96.9212 50.1112H90.316C90.1139 50.111 89.9202 50.0336 89.7773 49.8961C89.6344 49.7586 89.5541 49.5721 89.5538 49.3776V41.5531C89.5541 41.3586 89.6344 41.1722 89.7773 41.0347C89.9202 40.8971 90.1139 40.8198 90.316 40.8196H95.1021C95.2757 40.8197 95.4441 40.8768 95.5795 40.9814L97.3986 42.3883C97.4877 42.4568 97.5595 42.5438 97.6089 42.6428C97.6582 42.7418 97.6836 42.8503 97.6834 42.9601V49.3776C97.6831 49.5721 97.6028 49.7586 97.4599 49.8961C97.317 50.0336 97.1233 50.111 96.9212 50.1112ZM90.316 41.3086C90.2486 41.3087 90.1841 41.3345 90.1364 41.3803C90.0888 41.4262 90.062 41.4883 90.0619 41.5531V49.3776C90.062 49.4425 90.0888 49.5046 90.1364 49.5504C90.1841 49.5963 90.2486 49.6221 90.316 49.6222H96.9212C96.9886 49.6221 97.0531 49.5963 97.1008 49.5504C97.1484 49.5046 97.1752 49.4425 97.1753 49.3776V42.9601C97.1754 42.9235 97.1669 42.8873 97.1504 42.8543C97.134 42.8213 97.1101 42.7923 97.0804 42.7695L95.2611 41.3625C95.216 41.3276 95.1599 41.3087 95.1021 41.3086H90.316Z" fill="white"/>
<path d="M95.651 44.2428H91.5862C91.5188 44.2428 91.4542 44.217 91.4066 44.1712C91.3589 44.1253 91.3322 44.0631 91.3322 43.9983C91.3322 43.9334 91.3589 43.8713 91.4066 43.8254C91.4542 43.7795 91.5188 43.7538 91.5862 43.7538H95.651C95.7184 43.7538 95.783 43.7795 95.8306 43.8254C95.8783 43.8713 95.905 43.9334 95.905 43.9983C95.905 44.0631 95.8783 44.1253 95.8306 44.1712C95.783 44.217 95.7184 44.2428 95.651 44.2428Z" fill="white"/>
<path d="M95.651 45.7099H91.5862C91.5188 45.7099 91.4542 45.6841 91.4066 45.6382C91.3589 45.5924 91.3322 45.5302 91.3322 45.4653C91.3322 45.4005 91.3589 45.3383 91.4066 45.2924C91.4542 45.2466 91.5188 45.2208 91.5862 45.2208H95.651C95.7184 45.2208 95.783 45.2466 95.8306 45.2924C95.8783 45.3383 95.905 45.4005 95.905 45.4653C95.905 45.5302 95.8783 45.5924 95.8306 45.6382C95.783 45.6841 95.7184 45.7099 95.651 45.7099Z" fill="white"/>
<path d="M95.651 47.177H91.5862C91.5188 47.177 91.4542 47.1513 91.4066 47.1054C91.3589 47.0595 91.3322 46.9974 91.3322 46.9325C91.3322 46.8677 91.3589 46.8055 91.4066 46.7596C91.4542 46.7137 91.5188 46.688 91.5862 46.688H95.651C95.7184 46.688 95.783 46.7137 95.8306 46.7596C95.8783 46.8055 95.905 46.8677 95.905 46.9325C95.905 46.9974 95.8783 47.0595 95.8306 47.1054C95.783 47.1513 95.7184 47.177 95.651 47.177Z" fill="white"/>
<path d="M140.617 51.3337C144.827 51.3337 148.239 48.0495 148.239 43.9982C148.239 39.9469 144.827 36.6627 140.617 36.6627C136.408 36.6627 132.996 39.9469 132.996 43.9982C132.996 48.0495 136.408 51.3337 140.617 51.3337Z" fill="#6C63FF"/>
<path d="M144.174 46.688H137.061C136.859 46.6877 136.665 46.6104 136.522 46.4729C136.379 46.3353 136.299 46.1489 136.298 45.9544V42.0421C136.299 41.8477 136.379 41.6612 136.522 41.5237C136.665 41.3862 136.859 41.3088 137.061 41.3086H144.174C144.376 41.3088 144.57 41.3862 144.713 41.5237C144.856 41.6612 144.936 41.8477 144.936 42.0421V45.9544C144.936 46.1489 144.856 46.3353 144.713 46.4729C144.57 46.6104 144.376 46.6877 144.174 46.688ZM137.061 41.7976C136.993 41.7977 136.929 41.8235 136.881 41.8693C136.833 41.9152 136.807 41.9773 136.807 42.0421V45.9544C136.807 46.0192 136.833 46.0814 136.881 46.1272C136.929 46.1731 136.993 46.1989 137.061 46.1989H144.174C144.241 46.1989 144.306 46.1731 144.354 46.1272C144.401 46.0814 144.428 46.0192 144.428 45.9544V42.0421C144.428 41.9773 144.401 41.9152 144.354 41.8693C144.306 41.8235 144.241 41.7977 144.174 41.7976H137.061Z" fill="white"/>
<path d="M140.617 44.6433C140.475 44.6435 140.335 44.6051 140.213 44.5326L136.418 42.2494C136.361 42.215 136.32 42.1602 136.305 42.097C136.29 42.0339 136.302 41.9676 136.337 41.9126C136.373 41.8577 136.43 41.8187 136.496 41.804C136.561 41.7894 136.63 41.8004 136.687 41.8347L140.483 44.1178C140.523 44.1419 140.57 44.1547 140.617 44.1547C140.665 44.1547 140.712 44.1419 140.752 44.1178L144.547 41.8347C144.604 41.8004 144.673 41.7894 144.739 41.804C144.805 41.8187 144.861 41.8577 144.897 41.9126C144.933 41.9676 144.944 42.0339 144.929 42.097C144.914 42.1602 144.874 42.215 144.817 42.2494L141.021 44.5326C140.9 44.6052 140.76 44.6435 140.617 44.6433Z" fill="white"/>
<path d="M46.8738 80.4311C51.083 80.4311 54.4952 77.1469 54.4952 73.0956C54.4952 69.0443 51.083 65.7601 46.8738 65.7601C42.6646 65.7601 39.2524 69.0443 39.2524 73.0956C39.2524 77.1469 42.6646 80.4311 46.8738 80.4311Z" fill="#6C63FF"/>
<path d="M50.4305 75.7854H43.3171C43.1151 75.7851 42.9213 75.7078 42.7785 75.5703C42.6356 75.4327 42.5552 75.2463 42.555 75.0518V71.1396C42.5552 70.9451 42.6356 70.7586 42.7785 70.6211C42.9213 70.4836 43.1151 70.4062 43.3171 70.406H50.4305C50.6325 70.4062 50.8263 70.4836 50.9691 70.6211C51.112 70.7586 51.1924 70.9451 51.1926 71.1396V75.0518C51.1924 75.2463 51.112 75.4327 50.9691 75.5703C50.8263 75.7078 50.6325 75.7851 50.4305 75.7854ZM43.3171 70.895C43.2498 70.8951 43.1852 70.9209 43.1376 70.9667C43.0899 71.0126 43.0632 71.0747 43.0631 71.1396V75.0518C43.0632 75.1166 43.0899 75.1788 43.1376 75.2246C43.1852 75.2705 43.2498 75.2963 43.3171 75.2963H50.4305C50.4978 75.2963 50.5624 75.2705 50.61 75.2246C50.6577 75.1788 50.6845 75.1166 50.6845 75.0518V71.1396C50.6845 71.0747 50.6577 71.0126 50.61 70.9667C50.5624 70.9209 50.4978 70.8951 50.4305 70.895H43.3171Z" fill="white"/>
<path d="M49.303 75.7854H44.1905C44.1013 75.7854 44.0137 75.7628 43.9364 75.7199C43.8592 75.677 43.795 75.6152 43.7504 75.5409C43.7058 75.4665 43.6824 75.3822 43.6824 75.2963C43.6824 75.2105 43.7059 75.1261 43.7505 75.0518L45.2904 72.4844C45.335 72.41 45.3992 72.3483 45.4764 72.3054C45.5537 72.2625 45.6413 72.2399 45.7305 72.2399C45.8197 72.2399 45.9073 72.2625 45.9846 72.3054C46.0618 72.3483 46.126 72.41 46.1706 72.4844L47.1651 74.1425L47.7413 73.1819C47.7859 73.1075 47.8501 73.0458 47.9273 73.0029C48.0046 72.96 48.0922 72.9374 48.1814 72.9374C48.2706 72.9374 48.3582 72.96 48.4355 73.0029C48.5127 73.0458 48.5769 73.1075 48.6215 73.1819L49.7431 75.0518C49.7877 75.1262 49.8112 75.2105 49.8111 75.2963C49.8111 75.3822 49.7877 75.4665 49.7431 75.5409C49.6984 75.6152 49.6343 75.677 49.557 75.7199C49.4798 75.7628 49.3922 75.7854 49.303 75.7854H49.303ZM49.303 75.2963L48.1814 73.4264L47.3852 74.7538C47.3629 74.791 47.3308 74.8219 47.2922 74.8433C47.2536 74.8648 47.2098 74.8761 47.1652 74.8761C47.1206 74.8761 47.0767 74.8648 47.0381 74.8433C46.9995 74.8219 46.9674 74.791 46.9451 74.7538L45.7306 72.7289L44.1905 75.2963H49.303Z" fill="white"/>
<path d="M49.6683 72.3621C49.9489 72.3621 50.1764 72.1431 50.1764 71.8731C50.1764 71.603 49.9489 71.384 49.6683 71.384C49.3877 71.384 49.1602 71.603 49.1602 71.8731C49.1602 72.1431 49.3877 72.3621 49.6683 72.3621Z" fill="white"/>
<path d="M94.1267 79.6976C98.3359 79.6976 101.748 76.4134 101.748 72.3621C101.748 68.3108 98.3359 65.0266 94.1267 65.0266C89.9175 65.0266 86.5052 68.3108 86.5052 72.3621C86.5052 76.4134 89.9175 79.6976 94.1267 79.6976Z" fill="#6C63FF"/>
<path d="M94.1268 72.4844C93.6746 72.4844 93.2325 72.3553 92.8565 72.1135C92.4805 71.8717 92.1874 71.528 92.0144 71.1259C91.8413 70.7238 91.796 70.2813 91.8843 69.8544C91.9725 69.4276 92.1903 69.0354 92.51 68.7277C92.8298 68.4199 93.2372 68.2103 93.6807 68.1254C94.1242 68.0405 94.584 68.0841 95.0017 68.2506C95.4195 68.4172 95.7766 68.6993 96.0279 69.0612C96.2791 69.4231 96.4132 69.8485 96.4132 70.2838C96.4125 70.8672 96.1714 71.4266 95.7428 71.8391C95.3141 72.2517 94.733 72.4838 94.1268 72.4844ZM94.1268 68.5722C93.775 68.5722 93.4312 68.6725 93.1388 68.8606C92.8463 69.0487 92.6184 69.316 92.4838 69.6288C92.3492 69.9415 92.314 70.2857 92.3826 70.6177C92.4512 70.9497 92.6206 71.2547 92.8693 71.4941C93.118 71.7334 93.4349 71.8965 93.7798 71.9625C94.1248 72.0285 94.4824 71.9946 94.8073 71.8651C95.1323 71.7355 95.41 71.5162 95.6054 71.2347C95.8008 70.9532 95.9051 70.6223 95.9051 70.2838C95.9046 69.83 95.717 69.3949 95.3836 69.0741C95.0503 68.7532 94.5982 68.5727 94.1268 68.5722Z" fill="white"/>
<path d="M96.1591 76.6413H92.0944C91.8586 76.641 91.6326 76.5507 91.4659 76.3903C91.2993 76.2299 91.2055 76.0123 91.2052 75.7854C91.2052 75.0397 91.513 74.3244 92.0609 73.7971C92.6088 73.2698 93.3519 72.9735 94.1268 72.9735C94.9016 72.9735 95.6447 73.2698 96.1926 73.7971C96.7405 74.3244 97.0483 75.0397 97.0483 75.7854C97.048 76.0123 96.9542 76.2299 96.7876 76.3903C96.6209 76.5507 96.3949 76.641 96.1591 76.6413ZM94.1268 73.4625C93.4869 73.4632 92.8734 73.7082 92.421 74.1437C91.9685 74.5792 91.714 75.1696 91.7133 75.7854C91.7134 75.8827 91.7536 75.9759 91.825 76.0447C91.8965 76.1134 91.9933 76.1521 92.0944 76.1522H96.1591C96.2602 76.1521 96.357 76.1134 96.4285 76.0447C96.4999 75.9759 96.5401 75.8827 96.5402 75.7854C96.5395 75.1696 96.285 74.5792 95.8325 74.1437C95.3801 73.7082 94.7666 73.4632 94.1268 73.4625Z" fill="white"/>
<path d="M20.5618 116.02H23.6765L25.1581 104.457L20.5613 104.457L20.5618 116.02Z" fill="#FFB8B8"/>
<path d="M29.6832 118.803L19.8945 118.803L19.8943 115.163L25.901 115.163C26.9041 115.163 27.866 115.546 28.5753 116.229C29.2846 116.911 29.6831 117.837 29.6832 118.803L29.6832 118.803Z" fill="#2F2E41"/>
<path d="M8.87563 116.02H11.9903L13.4719 104.457L8.87512 104.457L8.87563 116.02Z" fill="#FFB8B8"/>
<path d="M17.997 118.803L8.20836 118.803L8.20819 115.163L14.2149 115.163C15.2179 115.163 16.1799 115.546 16.8892 116.229C17.5985 116.911 17.997 117.837 17.997 118.803L17.997 118.803Z" fill="#2F2E41"/>
<path d="M9.25605 81.5823C9.59161 81.3746 9.87576 81.0985 10.0885 80.7737C10.3012 80.4488 10.4373 80.083 10.4873 79.702C10.5372 79.321 10.4998 78.9341 10.3776 78.5685C10.2554 78.203 10.0514 77.8677 9.77995 77.5862L11.8308 49.575L5.92338 50.1264L5.76112 77.5578C5.30007 78.028 5.03424 78.6447 5.014 79.2909C4.99377 79.9372 5.22053 80.5681 5.65133 81.0642C6.08213 81.5602 6.68703 81.887 7.3514 81.9825C8.01578 82.078 8.69347 81.9356 9.25606 81.5823H9.25605Z" fill="#FFB8B8"/>
<path d="M20.6547 110.196C20.3752 110.195 20.1057 110.096 19.8967 109.918C19.6877 109.739 19.5535 109.493 19.5194 109.226L17.709 94.6525C17.6835 94.4473 17.5818 94.2579 17.4225 94.1192C17.2632 93.9806 17.0572 93.9022 16.8425 93.8983C16.6278 93.8945 16.419 93.9656 16.2545 94.0985C16.09 94.2314 15.9811 94.417 15.9477 94.6212L13.6671 108.575C13.6259 108.835 13.4891 109.071 13.2818 109.242C13.0746 109.412 12.8105 109.505 12.5378 109.504H8.84143C8.69057 109.504 8.54121 109.476 8.40194 109.42C8.26268 109.364 8.13627 109.282 8.03 109.179C7.92373 109.076 7.83971 108.954 7.78276 108.819C7.72582 108.685 7.69708 108.541 7.69821 108.396L9.46238 77.4561C9.46304 77.1927 9.56241 76.9384 9.74226 76.7399C9.9221 76.5413 10.1703 76.4119 10.4414 76.3754L24.1583 74.4589C24.3213 74.4362 24.4875 74.4476 24.6454 74.4924C24.8034 74.5372 24.9495 74.6143 25.0736 74.7184C25.1978 74.8225 25.2971 74.9513 25.3648 75.0958C25.4324 75.2403 25.4669 75.3971 25.4658 75.5556L25.2265 108.946C25.2245 109.227 25.1105 109.497 24.9079 109.7C24.7054 109.903 24.4297 110.024 24.1377 110.037L20.709 110.195C20.6908 110.195 20.6727 110.196 20.6547 110.196Z" fill="#3F3D56"/>
<path d="M13.5433 78.6249C12.2239 78.62 10.9152 78.3958 9.67518 77.962C9.46496 77.8875 9.28238 77.7547 9.15045 77.5804C9.01853 77.4062 8.94316 77.1982 8.93387 76.9828C8.81553 74.4552 8.12322 61.4452 6.10771 53.5095C5.71597 51.9527 5.81177 50.3192 6.38307 48.8148C6.95436 47.3104 7.97557 46.0024 9.31798 45.0558C9.42639 44.9808 9.53692 44.9071 9.64956 44.8349C10.8153 44.088 12.1601 43.6406 13.5562 43.5353C14.9523 43.4299 16.3531 43.6702 17.6255 44.2331C18.94 44.7992 20.0821 45.6796 20.9431 46.7906C21.8042 47.9015 22.3555 49.2061 22.5448 50.58L25.8315 74.066C25.8526 74.2128 25.8425 74.3622 25.8019 74.5052C25.7612 74.6482 25.6908 74.7817 25.595 74.8977C25.5012 75.0129 25.3841 75.1085 25.2507 75.1789C25.1174 75.2492 24.9706 75.2927 24.8192 75.3067C23.6804 75.4161 21.3183 75.8409 18.2953 77.4575C16.8416 78.2326 15.2051 78.6346 13.5433 78.6249Z" fill="#D0CDE1"/>
<path d="M9.52507 59.1569L4.11623 57.7454C3.82378 57.6687 3.57487 57.4836 3.4241 57.2305C3.27334 56.9774 3.23302 56.6771 3.31201 56.3955L5.21344 49.6456C5.4171 48.9226 5.89167 48.2978 6.54565 47.8916C7.19963 47.4854 7.9867 47.3266 8.7551 47.4459C9.5235 47.5652 10.2188 47.9541 10.7069 48.5376C11.1951 49.1211 11.4415 49.8578 11.3986 50.6058L10.9657 58.1555C10.9564 58.3192 10.9091 58.4788 10.8274 58.6227C10.7457 58.7665 10.6317 58.891 10.4936 58.987C10.3555 59.083 10.1969 59.148 10.0293 59.1774C9.86174 59.2068 9.68946 59.1998 9.52507 59.1569Z" fill="#D0CDE1"/>
<path d="M15.5461 41.0442C18.9921 41.0442 21.7857 38.3554 21.7857 35.0387C21.7857 31.7219 18.9921 29.0331 15.5461 29.0331C12.1 29.0331 9.3064 31.7219 9.3064 35.0387C9.3064 38.3554 12.1 41.0442 15.5461 41.0442Z" fill="#FFB8B8"/>
<path d="M38.1572 46.8376C38.126 46.9696 38.1057 47.1036 38.0964 47.2387L27.1832 53.2983L24.5305 51.8285L21.7027 55.3916L27.3774 59.2845L39.8277 49.8308C40.3355 50.0117 40.8885 50.0395 41.4131 49.9105C41.9377 49.7815 42.4091 49.5018 42.7645 49.1087C43.12 48.7156 43.3427 48.2276 43.403 47.7097C43.4633 47.1918 43.3583 46.6686 43.1021 46.2095C42.8459 45.7504 42.4505 45.3772 41.9686 45.1397C41.4867 44.9021 40.941 44.8114 40.4042 44.8796C39.8674 44.9478 39.3649 45.1717 38.9635 45.5214C38.5621 45.8712 38.2809 46.3303 38.1572 46.8376V46.8376Z" fill="#FFB8B8"/>
<path d="M26.2787 53.5907L21.5777 56.527C21.3233 56.6856 21.0139 56.7405 20.7175 56.6797C20.421 56.619 20.1617 56.4475 19.9964 56.203L16.0409 50.3365C15.6172 49.7081 15.4502 48.951 15.5721 48.2111C15.694 47.4713 16.0963 46.801 16.7012 46.3297C17.3062 45.8584 18.0711 45.6193 18.8483 45.6586C19.6256 45.6979 20.3602 46.0128 20.9105 46.5426L26.4649 51.8898C26.5853 52.0057 26.6773 52.146 26.7342 52.3006C26.791 52.4551 26.8112 52.6199 26.7934 52.783C26.7755 52.946 26.7201 53.1032 26.631 53.2429C26.542 53.3827 26.4216 53.5015 26.2787 53.5907Z" fill="#D0CDE1"/>
<path d="M11.1306 39.79C12.2946 40.9834 14.4564 40.3427 14.6081 38.7123C14.62 38.5858 14.6191 38.4584 14.6055 38.3319C14.5272 37.6097 14.0937 36.9541 14.1975 36.1915C14.221 36.0018 14.2945 35.8209 14.411 35.6661C15.3386 34.4706 17.516 36.2008 18.3914 35.1186C18.9282 34.4549 18.2972 33.4101 18.7092 32.6684C19.2528 31.6894 20.8632 32.1724 21.873 31.6362C22.9966 31.0397 22.9294 29.3805 22.1898 28.3713C21.2878 27.1405 19.7063 26.4838 18.1445 26.3891C16.5827 26.2944 15.0317 26.7008 13.5736 27.2477C11.9169 27.8691 10.2741 28.7279 9.25463 30.1299C8.01482 31.835 7.89551 34.1273 8.51556 36.121C8.89275 37.3338 10.18 38.8154 11.1306 39.79Z" fill="#2F2E41"/>
<path d="M35.8208 118.82H0.254109C0.186731 118.82 0.122113 118.794 0.0744697 118.749C0.0268265 118.703 6.10352e-05 118.641 6.10352e-05 118.576C6.10352e-05 118.511 0.0268265 118.449 0.0744697 118.403C0.122113 118.357 0.186731 118.331 0.254109 118.331H35.8208C35.8882 118.331 35.9528 118.357 36.0004 118.403C36.0481 118.449 36.0748 118.511 36.0748 118.576C36.0748 118.641 36.0481 118.703 36.0004 118.749C35.9528 118.794 35.8882 118.82 35.8208 118.82Z" fill="#3F3D56"/>
</g>
<defs>
<clipPath id="clip0_42_1352">
<rect width="232" height="118.016" fill="white" transform="translate(0 0.803955)"/>
</clipPath>
</defs>
</svg>
